<mxfile host="app.diagrams.net" modified="2024-01-06T17:57:54.699Z" agent="Mozilla/5.0 (Windows NT 10.0; Win64; x64; rv:121.0) Gecko/20100101 Firefox/121.0" etag="u7fIa2fax-Ts9nLqpVVE" version="22.1.17" type="github" pages="3">
  <diagram name="UseCase" id="iU6x4pzwyzOgv6TlolbP">
    <mxGraphModel dx="2876" dy="2223" grid="1" gridSize="10" guides="1" tooltips="1" connect="1" arrows="1" fold="1" page="1" pageScale="1" pageWidth="827" pageHeight="1169" math="0" shadow="0">
      <root>
        <mxCell id="0" />
        <mxCell id="1" parent="0" />
        <mxCell id="ErAchB5c7x_TsINvXWri-9" value="Ученик" style="shape=umlActor;verticalLabelPosition=bottom;verticalAlign=top;html=1;fontSize=16;" vertex="1" parent="1">
          <mxGeometry x="-60" y="80" width="30" height="60" as="geometry" />
        </mxCell>
        <mxCell id="ErAchB5c7x_TsINvXWri-10" value="Зам. директора" style="shape=umlActor;verticalLabelPosition=bottom;verticalAlign=top;html=1;fontSize=16;" vertex="1" parent="1">
          <mxGeometry x="1225" y="390" width="30" height="60" as="geometry" />
        </mxCell>
        <mxCell id="ErAchB5c7x_TsINvXWri-11" value="Смотреть расписание" style="ellipse;whiteSpace=wrap;html=1;fontSize=16;" vertex="1" parent="1">
          <mxGeometry x="290" y="180" width="140" height="70" as="geometry" />
        </mxCell>
        <mxCell id="ErAchB5c7x_TsINvXWri-12" value="Размещать материалы для уроков" style="ellipse;whiteSpace=wrap;html=1;fontSize=16;" vertex="1" parent="1">
          <mxGeometry x="490" y="200" width="140" height="70" as="geometry" />
        </mxCell>
        <mxCell id="ErAchB5c7x_TsINvXWri-13" value="Составлять расписание" style="ellipse;whiteSpace=wrap;html=1;fontSize=16;" vertex="1" parent="1">
          <mxGeometry x="414" y="470" width="140" height="70" as="geometry" />
        </mxCell>
        <mxCell id="ErAchB5c7x_TsINvXWri-20" value="&lt;div&gt;Просматривать свои оценки&lt;/div&gt;" style="ellipse;whiteSpace=wrap;html=1;fontSize=16;" vertex="1" parent="1">
          <mxGeometry x="200" y="65" width="140" height="70" as="geometry" />
        </mxCell>
        <mxCell id="ErAchB5c7x_TsINvXWri-22" value="" style="edgeStyle=none;html=1;endArrow=none;verticalAlign=bottom;rounded=0;fontSize=12;startSize=8;endSize=8;curved=1;" edge="1" parent="1" source="ErAchB5c7x_TsINvXWri-9" target="ErAchB5c7x_TsINvXWri-11">
          <mxGeometry width="160" relative="1" as="geometry">
            <mxPoint y="310" as="sourcePoint" />
            <mxPoint x="160" y="310" as="targetPoint" />
          </mxGeometry>
        </mxCell>
        <mxCell id="ErAchB5c7x_TsINvXWri-25" value="Выставлять оценки в электронный журнал" style="ellipse;whiteSpace=wrap;html=1;fontSize=16;" vertex="1" parent="1">
          <mxGeometry x="414" y="280" width="140" height="70" as="geometry" />
        </mxCell>
        <mxCell id="OdUiPssfK8-w7A5IoudM-2" value="Кл. руководитель" style="shape=umlActor;verticalLabelPosition=bottom;verticalAlign=top;html=1;fontSize=16;" vertex="1" parent="1">
          <mxGeometry x="1110" y="40" width="30" height="60" as="geometry" />
        </mxCell>
        <mxCell id="OdUiPssfK8-w7A5IoudM-6" value="Преподаватель" style="shape=umlActor;verticalLabelPosition=bottom;verticalAlign=top;html=1;fontSize=16;" vertex="1" parent="1">
          <mxGeometry x="1120" y="185" width="30" height="60" as="geometry" />
        </mxCell>
        <mxCell id="OdUiPssfK8-w7A5IoudM-7" value="&amp;nbsp;&amp;nbsp;&amp;nbsp; Составлять расписание родительских собраний" style="ellipse;whiteSpace=wrap;html=1;fontSize=16;" vertex="1" parent="1">
          <mxGeometry x="470" y="60" width="140" height="70" as="geometry" />
        </mxCell>
        <mxCell id="OdUiPssfK8-w7A5IoudM-9" value="Публиковать посты с важной информацией" style="ellipse;whiteSpace=wrap;html=1;fontSize=16;" vertex="1" parent="1">
          <mxGeometry x="770" y="440" width="140" height="70" as="geometry" />
        </mxCell>
        <mxCell id="OdUiPssfK8-w7A5IoudM-10" value="Отправлять сообщения" style="ellipse;whiteSpace=wrap;html=1;fontSize=16;" vertex="1" parent="1">
          <mxGeometry x="340" y="360" width="140" height="70" as="geometry" />
        </mxCell>
        <mxCell id="OdUiPssfK8-w7A5IoudM-12" value="" style="edgeStyle=none;html=1;endArrow=none;verticalAlign=bottom;rounded=0;" edge="1" parent="1" source="OdUiPssfK8-w7A5IoudM-7" target="OdUiPssfK8-w7A5IoudM-2">
          <mxGeometry width="160" relative="1" as="geometry">
            <mxPoint x="780" y="390" as="sourcePoint" />
            <mxPoint x="940" y="390" as="targetPoint" />
          </mxGeometry>
        </mxCell>
        <mxCell id="OdUiPssfK8-w7A5IoudM-13" value="" style="edgeStyle=none;html=1;endArrow=none;verticalAlign=bottom;rounded=0;" edge="1" parent="1" source="ErAchB5c7x_TsINvXWri-12" target="OdUiPssfK8-w7A5IoudM-6">
          <mxGeometry width="160" relative="1" as="geometry">
            <mxPoint x="630" y="152" as="sourcePoint" />
            <mxPoint x="804" y="145" as="targetPoint" />
          </mxGeometry>
        </mxCell>
        <mxCell id="OdUiPssfK8-w7A5IoudM-14" value="" style="edgeStyle=none;html=1;endArrow=none;verticalAlign=bottom;rounded=0;" edge="1" parent="1" source="ErAchB5c7x_TsINvXWri-25" target="OdUiPssfK8-w7A5IoudM-6">
          <mxGeometry width="160" relative="1" as="geometry">
            <mxPoint x="640" y="247" as="sourcePoint" />
            <mxPoint x="804" y="254" as="targetPoint" />
          </mxGeometry>
        </mxCell>
        <mxCell id="OdUiPssfK8-w7A5IoudM-18" value="" style="edgeStyle=none;html=1;endArrow=none;verticalAlign=bottom;rounded=0;" edge="1" parent="1" source="OdUiPssfK8-w7A5IoudM-10" target="OdUiPssfK8-w7A5IoudM-6">
          <mxGeometry width="160" relative="1" as="geometry">
            <mxPoint x="568" y="310" as="sourcePoint" />
            <mxPoint x="803" y="253" as="targetPoint" />
          </mxGeometry>
        </mxCell>
        <mxCell id="OdUiPssfK8-w7A5IoudM-19" value="" style="edgeStyle=none;html=1;endArrow=none;verticalAlign=bottom;rounded=0;" edge="1" parent="1" source="OdUiPssfK8-w7A5IoudM-10" target="ErAchB5c7x_TsINvXWri-10">
          <mxGeometry width="160" relative="1" as="geometry">
            <mxPoint x="475" y="383" as="sourcePoint" />
            <mxPoint x="807" y="250" as="targetPoint" />
          </mxGeometry>
        </mxCell>
        <mxCell id="OdUiPssfK8-w7A5IoudM-20" value="" style="edgeStyle=none;html=1;endArrow=none;verticalAlign=bottom;rounded=0;" edge="1" parent="1" source="ErAchB5c7x_TsINvXWri-13" target="ErAchB5c7x_TsINvXWri-10">
          <mxGeometry width="160" relative="1" as="geometry">
            <mxPoint x="490" y="401" as="sourcePoint" />
            <mxPoint x="796" y="383" as="targetPoint" />
          </mxGeometry>
        </mxCell>
        <mxCell id="OdUiPssfK8-w7A5IoudM-21" value="" style="edgeStyle=none;html=1;endArrow=none;verticalAlign=bottom;rounded=0;" edge="1" parent="1" source="OdUiPssfK8-w7A5IoudM-9" target="ErAchB5c7x_TsINvXWri-10">
          <mxGeometry width="160" relative="1" as="geometry">
            <mxPoint x="625" y="448" as="sourcePoint" />
            <mxPoint x="796" y="382" as="targetPoint" />
          </mxGeometry>
        </mxCell>
        <mxCell id="OdUiPssfK8-w7A5IoudM-23" value="" style="edgeStyle=none;html=1;endArrow=none;verticalAlign=bottom;rounded=0;fontSize=12;startSize=8;endSize=8;curved=1;" edge="1" parent="1" source="ErAchB5c7x_TsINvXWri-9" target="ErAchB5c7x_TsINvXWri-20">
          <mxGeometry width="160" relative="1" as="geometry">
            <mxPoint x="120" y="198" as="sourcePoint" />
            <mxPoint x="252" y="183" as="targetPoint" />
          </mxGeometry>
        </mxCell>
        <mxCell id="OdUiPssfK8-w7A5IoudM-24" value="" style="edgeStyle=none;html=1;endArrow=none;verticalAlign=bottom;rounded=0;fontSize=12;startSize=8;endSize=8;curved=1;" edge="1" parent="1" source="ErAchB5c7x_TsINvXWri-9" target="OdUiPssfK8-w7A5IoudM-10">
          <mxGeometry width="160" relative="1" as="geometry">
            <mxPoint x="120" y="205" as="sourcePoint" />
            <mxPoint x="260" y="247" as="targetPoint" />
          </mxGeometry>
        </mxCell>
        <mxCell id="OdUiPssfK8-w7A5IoudM-25" value="" style="edgeStyle=none;html=1;endArrow=block;endFill=0;endSize=12;verticalAlign=bottom;rounded=0;" edge="1" parent="1" source="OdUiPssfK8-w7A5IoudM-2" target="OdUiPssfK8-w7A5IoudM-6">
          <mxGeometry width="160" relative="1" as="geometry">
            <mxPoint x="880" y="210" as="sourcePoint" />
            <mxPoint x="1040" y="210" as="targetPoint" />
          </mxGeometry>
        </mxCell>
        <mxCell id="OdUiPssfK8-w7A5IoudM-26" value="Узнать среднюю оценку за некоторый период времени" style="ellipse;whiteSpace=wrap;html=1;fontSize=16;" vertex="1" parent="1">
          <mxGeometry x="90" y="-30" width="140" height="70" as="geometry" />
        </mxCell>
        <mxCell id="OdUiPssfK8-w7A5IoudM-27" value="Узнать среднюю оценку по предмету" style="ellipse;whiteSpace=wrap;html=1;fontSize=16;" vertex="1" parent="1">
          <mxGeometry x="280" y="-40" width="140" height="70" as="geometry" />
        </mxCell>
        <mxCell id="OdUiPssfK8-w7A5IoudM-28" value="" style="edgeStyle=none;html=1;endArrow=block;endFill=0;endSize=12;verticalAlign=bottom;rounded=0;" edge="1" parent="1" source="OdUiPssfK8-w7A5IoudM-26" target="ErAchB5c7x_TsINvXWri-20">
          <mxGeometry width="160" relative="1" as="geometry">
            <mxPoint x="90" y="80" as="sourcePoint" />
            <mxPoint x="250" y="80" as="targetPoint" />
          </mxGeometry>
        </mxCell>
        <mxCell id="OdUiPssfK8-w7A5IoudM-29" value="" style="edgeStyle=none;html=1;endArrow=block;endFill=0;endSize=12;verticalAlign=bottom;rounded=0;" edge="1" parent="1" source="OdUiPssfK8-w7A5IoudM-27" target="ErAchB5c7x_TsINvXWri-20">
          <mxGeometry width="160" relative="1" as="geometry">
            <mxPoint x="205" y="45" as="sourcePoint" />
            <mxPoint x="245" y="80" as="targetPoint" />
          </mxGeometry>
        </mxCell>
        <mxCell id="OdUiPssfK8-w7A5IoudM-31" value="Расписание занятий" style="ellipse;whiteSpace=wrap;html=1;fontSize=16;" vertex="1" parent="1">
          <mxGeometry x="274" y="590" width="140" height="70" as="geometry" />
        </mxCell>
        <mxCell id="OdUiPssfK8-w7A5IoudM-32" value="Расписание мероприятий" style="ellipse;whiteSpace=wrap;html=1;fontSize=16;" vertex="1" parent="1">
          <mxGeometry x="430" y="590" width="140" height="70" as="geometry" />
        </mxCell>
        <mxCell id="OdUiPssfK8-w7A5IoudM-33" value="Расписание каникул" style="ellipse;whiteSpace=wrap;html=1;fontSize=16;" vertex="1" parent="1">
          <mxGeometry x="590" y="590" width="140" height="70" as="geometry" />
        </mxCell>
        <mxCell id="OdUiPssfK8-w7A5IoudM-34" value="&amp;lt;&amp;lt;include&amp;gt;&amp;gt;" style="edgeStyle=none;html=1;endArrow=open;verticalAlign=bottom;dashed=1;labelBackgroundColor=none;rounded=0;" edge="1" parent="1" source="ErAchB5c7x_TsINvXWri-13" target="OdUiPssfK8-w7A5IoudM-31">
          <mxGeometry width="160" relative="1" as="geometry">
            <mxPoint x="280" y="550" as="sourcePoint" />
            <mxPoint x="440" y="550" as="targetPoint" />
          </mxGeometry>
        </mxCell>
        <mxCell id="OdUiPssfK8-w7A5IoudM-35" value="&amp;lt;&amp;lt;include&amp;gt;&amp;gt;" style="edgeStyle=none;html=1;endArrow=open;verticalAlign=bottom;dashed=1;labelBackgroundColor=none;rounded=0;" edge="1" parent="1" source="ErAchB5c7x_TsINvXWri-13" target="OdUiPssfK8-w7A5IoudM-32">
          <mxGeometry width="160" relative="1" as="geometry">
            <mxPoint x="389" y="605" as="sourcePoint" />
            <mxPoint x="459" y="545" as="targetPoint" />
          </mxGeometry>
        </mxCell>
        <mxCell id="OdUiPssfK8-w7A5IoudM-36" value="&amp;lt;&amp;lt;include&amp;gt;&amp;gt;" style="edgeStyle=none;html=1;endArrow=open;verticalAlign=bottom;dashed=1;labelBackgroundColor=none;rounded=0;" edge="1" parent="1" source="ErAchB5c7x_TsINvXWri-13" target="OdUiPssfK8-w7A5IoudM-33">
          <mxGeometry width="160" relative="1" as="geometry">
            <mxPoint x="505" y="600" as="sourcePoint" />
            <mxPoint x="499" y="550" as="targetPoint" />
          </mxGeometry>
        </mxCell>
        <mxCell id="OdUiPssfK8-w7A5IoudM-37" value="Прикрепить файл к сообщению" style="ellipse;whiteSpace=wrap;html=1;fontSize=16;" vertex="1" parent="1">
          <mxGeometry x="120" y="430" width="140" height="70" as="geometry" />
        </mxCell>
        <mxCell id="OdUiPssfK8-w7A5IoudM-38" value="&amp;lt;&amp;lt;extend&amp;gt;&amp;gt;" style="edgeStyle=none;html=1;startArrow=open;endArrow=none;startSize=12;verticalAlign=bottom;dashed=1;labelBackgroundColor=none;rounded=0;" edge="1" parent="1" source="OdUiPssfK8-w7A5IoudM-10" target="OdUiPssfK8-w7A5IoudM-37">
          <mxGeometry width="160" relative="1" as="geometry">
            <mxPoint x="150" y="380" as="sourcePoint" />
            <mxPoint x="310" y="380" as="targetPoint" />
          </mxGeometry>
        </mxCell>
        <mxCell id="X_zS58jtOyvEEsak4WgJ-1" value="ИС &quot;Школьная&quot;" style="shape=umlFrame;whiteSpace=wrap;html=1;pointerEvents=0;" vertex="1" parent="1">
          <mxGeometry x="50" y="-90" width="890" height="780" as="geometry" />
        </mxCell>
      </root>
    </mxGraphModel>
  </diagram>
  <diagram id="MhvjqvIAcCJ7n47bm34k" name="Страница — 2">
    <mxGraphModel dx="1793" dy="923" grid="1" gridSize="10" guides="1" tooltips="1" connect="1" arrows="1" fold="1" page="1" pageScale="1" pageWidth="827" pageHeight="1169" math="0" shadow="0">
      <root>
        <mxCell id="0" />
        <mxCell id="1" parent="0" />
        <UserObject label="" plantUmlData="{&#xa;  &quot;data&quot;: &quot;@startuml\n!define RECTANGLE class\n!define ROUNDRECT class\n!define INTERFACE interface\n!define DATABASE database\n!define CLOUD rectangle\n\nRECTANGLE Customer {\n  +Personal Information\n  +Payment Details\n  +Browse Shoes\n  +Add to Cart\n  +Proceed to Checkout\n  +Make Payment\n  +Track Order Status\n  +View Order History\n}\n\nRECTANGLE Admin {\n  +Manage Inventory\n  +Add New Products\n  +Fulfill Orders\n  +View Sales Data\n  +Generate Reports\n}\n\nRECTANGLE \&quot;External Systems\&quot; {\n  +Payment Gateways\n  +Shipping Providers\n}\n\nRECTANGLE \&quot;Shoez Online\&quot; {\n  {method} +Search by Category\n  {method} +Search by Brand\n  {method} +Search by Size\n  {method} +Search by Color\n  {method} +View Shoes on Virtual Model\n}\n\nCustomer --|&gt; \&quot;Shoez Online\&quot; : Uses\nAdmin --|&gt; \&quot;Shoez Online\&quot; : Manages\n\&quot;Shoez Online\&quot; --|&gt; \&quot;External Systems\&quot; : Communicates with\n\n@enduml\n&quot;,&#xa;  &quot;format&quot;: &quot;svg&quot;&#xa;}" id="uCpsXzkTBloRi5_xqusf-1">
          <mxCell style="shape=image;noLabel=1;verticalAlign=top;aspect=fixed;imageAspect=0;image=data:image/svg+xml,PD94bWwgdmVyc2lvbj0iMS4wIiBlbmNvZGluZz0idXMtYXNjaWkiIHN0YW5kYWxvbmU9Im5vIj8+PHN2ZyB4bWxucz0iaHR0cDovL3d3dy53My5vcmcvMjAwMC9zdmciIHhtbG5zOnhsaW5rPSJodHRwOi8vd3d3LnczLm9yZy8xOTk5L3hsaW5rIiBjb250ZW50U3R5bGVUeXBlPSJ0ZXh0L2NzcyIgaGVpZ2h0PSI1MzJweCIgcHJlc2VydmVBc3BlY3RSYXRpbz0ibm9uZSIgc3R5bGU9IndpZHRoOjM1NXB4O2hlaWdodDo1MzJweDtiYWNrZ3JvdW5kOiNGRkZGRkY7IiB2ZXJzaW9uPSIxLjEiIHZpZXdCb3g9IjAgMCAzNTUgNTMyIiB3aWR0aD0iMzU1cHgiIHpvb21BbmRQYW49Im1hZ25pZnkiPjxkZWZzLz48Zz48IS0tY2xhc3MgQ3VzdG9tZXItLT48ZyBpZD0iZWxlbV9DdXN0b21lciI+PHJlY3QgY29kZUxpbmU9IjciIGZpbGw9IiNGMUYxRjEiIGhlaWdodD0iMTY3Ljg3NSIgaWQ9IkN1c3RvbWVyIiByeD0iMi41IiByeT0iMi41IiBzdHlsZT0ic3Ryb2tlOiMxODE4MTg7c3Ryb2tlLXdpZHRoOjAuNTsiIHdpZHRoPSIxNjciIHg9IjciIHk9IjciLz48ZWxsaXBzZSBjeD0iNTcuNzUiIGN5PSIyMyIgZmlsbD0iI0FERDFCMiIgcng9IjExIiByeT0iMTEiIHN0eWxlPSJzdHJva2U6IzE4MTgxODtzdHJva2Utd2lkdGg6MS4wOyIvPjxwYXRoIGQ9Ik01NS4zNzUsMjcuMjUgTDU1LjM3NSwyOSBMNjAuMzEyNSwyOSBMNjAuMzEyNSwyNy4yNSBMNTUuMzc1LDI3LjI1IFogTTU2LjA2MjUsMjcuOTM3NSBRNTYuMDYyNSwyNy45Mzc1IDU2LjA2MjUsMTguNzUgTDU0LjMxMjUsMTguNzUgUTU0LjMxMjUsMTguNzUgNTQuMzEyNSwyNy45Mzc1IEw1Ni4wNjI1LDI3LjkzNzUgWiBNNTkuNjI1LDI3LjkzNzUgTDYxLjM3NSwyNy45Mzc1IFE2MS4zNzUsMjcuOTM3NSA2MS4zNzUsMjUuMTI1IEw1OS42MjUsMjUuMTI1IFE1OS42MjUsMjUuMTI1IDU5LjYyNSwyNy45Mzc1IFogTTU5LjYyNSwxOC43NSBRNTkuNjI1LDE4Ljc1IDU5LjYyNSwyMS41NjI1IEw2MS4zNzUsMjEuNTYyNSBRNjEuMzc1LDIxLjU2MjUgNjEuMzc1LDE4Ljc1IEw1OS42MjUsMTguNzUgWiBNNTUuMzc1LDE5LjQzNzUgTDYwLjMxMjUsMTkuNDM3NSBMNjAuMzEyNSwxNy42ODc1IEw1NS4zNzUsMTcuNjg3NSBMNTUuMzc1LDE5LjQzNzUgWiAiIGZpbGw9IiMwMDAwMDAiLz48dGV4dCBmaWxsPSIjMDAwMDAwIiBmb250LWZhbWlseT0ic2Fucy1zZXJpZiIgZm9udC1zaXplPSIxNCIgbGVuZ3RoQWRqdXN0PSJzcGFjaW5nIiB0ZXh0TGVuZ3RoPSI1NyIgeD0iNzguMjUiIHk9IjI4Ljc0MjIiPkN1c3RvbWVyPC90ZXh0PjxsaW5lIHN0eWxlPSJzdHJva2U6IzE4MTgxODtzdHJva2Utd2lkdGg6MC41OyIgeDE9IjgiIHgyPSIxNzMiIHkxPSIzOSIgeTI9IjM5Ii8+PGVsbGlwc2UgY3g9IjE4IiBjeT0iNTEuOTkyMiIgZmlsbD0ibm9uZSIgcng9IjMiIHJ5PSIzIiBzdHlsZT0ic3Ryb2tlOiMwMzgwNDg7c3Ryb2tlLXdpZHRoOjEuMDsiLz48dGV4dCBmaWxsPSIjMDAwMDAwIiBmb250LWZhbWlseT0ic2Fucy1zZXJpZiIgZm9udC1zaXplPSIxNCIgbGVuZ3RoQWRqdXN0PSJzcGFjaW5nIiB0ZXh0TGVuZ3RoPSIxNDEiIHg9IjI3IiB5PSI1Ni4yMzQ0Ij5QZXJzb25hbCBJbmZvcm1hdGlvbjwvdGV4dD48ZWxsaXBzZSBjeD0iMTgiIGN5PSI2Ni45NzY2IiBmaWxsPSJub25lIiByeD0iMyIgcnk9IjMiIHN0eWxlPSJzdHJva2U6IzAzODA0ODtzdHJva2Utd2lkdGg6MS4wOyIvPjx0ZXh0IGZpbGw9IiMwMDAwMDAiIGZvbnQtZmFtaWx5PSJzYW5zLXNlcmlmIiBmb250LXNpemU9IjE0IiBsZW5ndGhBZGp1c3Q9InNwYWNpbmciIHRleHRMZW5ndGg9IjEwNiIgeD0iMjciIHk9IjcxLjIxODgiPlBheW1lbnQgRGV0YWlsczwvdGV4dD48ZWxsaXBzZSBjeD0iMTgiIGN5PSI4MS45NjA5IiBmaWxsPSJub25lIiByeD0iMyIgcnk9IjMiIHN0eWxlPSJzdHJva2U6IzAzODA0ODtzdHJva2Utd2lkdGg6MS4wOyIvPjx0ZXh0IGZpbGw9IiMwMDAwMDAiIGZvbnQtZmFtaWx5PSJzYW5zLXNlcmlmIiBmb250LXNpemU9IjE0IiBsZW5ndGhBZGp1c3Q9InNwYWNpbmciIHRleHRMZW5ndGg9Ijg1IiB4PSIyNyIgeT0iODYuMjAzMSI+QnJvd3NlIFNob2VzPC90ZXh0PjxlbGxpcHNlIGN4PSIxOCIgY3k9Ijk2Ljk0NTMiIGZpbGw9Im5vbmUiIHJ4PSIzIiByeT0iMyIgc3R5bGU9InN0cm9rZTojMDM4MDQ4O3N0cm9rZS13aWR0aDoxLjA7Ii8+PHRleHQgZmlsbD0iIzAwMDAwMCIgZm9udC1mYW1pbHk9InNhbnMtc2VyaWYiIGZvbnQtc2l6ZT0iMTQiIGxlbmd0aEFkanVzdD0ic3BhY2luZyIgdGV4dExlbmd0aD0iNzciIHg9IjI3IiB5PSIxMDEuMTg3NSI+QWRkIHRvIENhcnQ8L3RleHQ+PGVsbGlwc2UgY3g9IjE4IiBjeT0iMTExLjkyOTciIGZpbGw9Im5vbmUiIHJ4PSIzIiByeT0iMyIgc3R5bGU9InN0cm9rZTojMDM4MDQ4O3N0cm9rZS13aWR0aDoxLjA7Ii8+PHRleHQgZmlsbD0iIzAwMDAwMCIgZm9udC1mYW1pbHk9InNhbnMtc2VyaWYiIGZvbnQtc2l6ZT0iMTQiIGxlbmd0aEFkanVzdD0ic3BhY2luZyIgdGV4dExlbmd0aD0iMTMzIiB4PSIyNyIgeT0iMTE2LjE3MTkiPlByb2NlZWQgdG8gQ2hlY2tvdXQ8L3RleHQ+PGVsbGlwc2UgY3g9IjE4IiBjeT0iMTI2LjkxNDEiIGZpbGw9Im5vbmUiIHJ4PSIzIiByeT0iMyIgc3R5bGU9InN0cm9rZTojMDM4MDQ4O3N0cm9rZS13aWR0aDoxLjA7Ii8+PHRleHQgZmlsbD0iIzAwMDAwMCIgZm9udC1mYW1pbHk9InNhbnMtc2VyaWYiIGZvbnQtc2l6ZT0iMTQiIGxlbmd0aEFkanVzdD0ic3BhY2luZyIgdGV4dExlbmd0aD0iODUiIHg9IjI3IiB5PSIxMzEuMTU2MyI+TWFrZSBQYXltZW50PC90ZXh0PjxlbGxpcHNlIGN4PSIxOCIgY3k9IjE0MS44OTg0IiBmaWxsPSJub25lIiByeD0iMyIgcnk9IjMiIHN0eWxlPSJzdHJva2U6IzAzODA0ODtzdHJva2Utd2lkdGg6MS4wOyIvPjx0ZXh0IGZpbGw9IiMwMDAwMDAiIGZvbnQtZmFtaWx5PSJzYW5zLXNlcmlmIiBmb250LXNpemU9IjE0IiBsZW5ndGhBZGp1c3Q9InNwYWNpbmciIHRleHRMZW5ndGg9IjEyNiIgeD0iMjciIHk9IjE0Ni4xNDA2Ij5UcmFjayBPcmRlciBTdGF0dXM8L3RleHQ+PGVsbGlwc2UgY3g9IjE4IiBjeT0iMTU2Ljg4MjgiIGZpbGw9Im5vbmUiIHJ4PSIzIiByeT0iMyIgc3R5bGU9InN0cm9rZTojMDM4MDQ4O3N0cm9rZS13aWR0aDoxLjA7Ii8+PHRleHQgZmlsbD0iIzAwMDAwMCIgZm9udC1mYW1pbHk9InNhbnMtc2VyaWYiIGZvbnQtc2l6ZT0iMTQiIGxlbmd0aEFkanVzdD0ic3BhY2luZyIgdGV4dExlbmd0aD0iMTI3IiB4PSIyNyIgeT0iMTYxLjEyNSI+VmlldyBPcmRlciBIaXN0b3J5PC90ZXh0PjxsaW5lIHN0eWxlPSJzdHJva2U6IzE4MTgxODtzdHJva2Utd2lkdGg6MC41OyIgeDE9IjgiIHgyPSIxNzMiIHkxPSIxNjYuODc1IiB5Mj0iMTY2Ljg3NSIvPjwvZz48IS0tY2xhc3MgQWRtaW4tLT48ZyBpZD0iZWxlbV9BZG1pbiI+PHJlY3QgY29kZUxpbmU9IjE4IiBmaWxsPSIjRjFGMUYxIiBoZWlnaHQ9IjEyMi45MjE5IiBpZD0iQWRtaW4iIHJ4PSIyLjUiIHJ5PSIyLjUiIHN0eWxlPSJzdHJva2U6IzE4MTgxODtzdHJva2Utd2lkdGg6MC41OyIgd2lkdGg9IjEzOSIgeD0iMjA5IiB5PSIyOS41Ii8+PGVsbGlwc2UgY3g9IjI1Ni4yNSIgY3k9IjQ1LjUiIGZpbGw9IiNBREQxQjIiIHJ4PSIxMSIgcnk9IjExIiBzdHlsZT0ic3Ryb2tlOiMxODE4MTg7c3Ryb2tlLXdpZHRoOjEuMDsiLz48cGF0aCBkPSJNMjUzLjg3NSw0OS43NSBMMjUzLjg3NSw1MS41IEwyNTguODEyNSw1MS41IEwyNTguODEyNSw0OS43NSBMMjUzLjg3NSw0OS43NSBaIE0yNTQuNTYyNSw1MC40Mzc1IFEyNTQuNTYyNSw1MC40Mzc1IDI1NC41NjI1LDQxLjI1IEwyNTIuODEyNSw0MS4yNSBRMjUyLjgxMjUsNDEuMjUgMjUyLjgxMjUsNTAuNDM3NSBMMjU0LjU2MjUsNTAuNDM3NSBaIE0yNTguMTI1LDUwLjQzNzUgTDI1OS44NzUsNTAuNDM3NSBRMjU5Ljg3NSw1MC40Mzc1IDI1OS44NzUsNDcuNjI1IEwyNTguMTI1LDQ3LjYyNSBRMjU4LjEyNSw0Ny42MjUgMjU4LjEyNSw1MC40Mzc1IFogTTI1OC4xMjUsNDEuMjUgUTI1OC4xMjUsNDEuMjUgMjU4LjEyNSw0NC4wNjI1IEwyNTkuODc1LDQ0LjA2MjUgUTI1OS44NzUsNDQuMDYyNSAyNTkuODc1LDQxLjI1IEwyNTguMTI1LDQxLjI1IFogTTI1My44NzUsNDEuOTM3NSBMMjU4LjgxMjUsNDEuOTM3NSBMMjU4LjgxMjUsNDAuMTg3NSBMMjUzLjg3NSw0MC4xODc1IEwyNTMuODc1LDQxLjkzNzUgWiAiIGZpbGw9IiMwMDAwMDAiLz48dGV4dCBmaWxsPSIjMDAwMDAwIiBmb250LWZhbWlseT0ic2Fucy1zZXJpZiIgZm9udC1zaXplPSIxNCIgbGVuZ3RoQWRqdXN0PSJzcGFjaW5nIiB0ZXh0TGVuZ3RoPSIzNiIgeD0iMjc2Ljc1IiB5PSI1MS4yNDIyIj5BZG1pbjwvdGV4dD48bGluZSBzdHlsZT0ic3Ryb2tlOiMxODE4MTg7c3Ryb2tlLXdpZHRoOjAuNTsiIHgxPSIyMTAiIHgyPSIzNDciIHkxPSI2MS41IiB5Mj0iNjEuNSIvPjxlbGxpcHNlIGN4PSIyMjAiIGN5PSI3NC40OTIyIiBmaWxsPSJub25lIiByeD0iMyIgcnk9IjMiIHN0eWxlPSJzdHJva2U6IzAzODA0ODtzdHJva2Utd2lkdGg6MS4wOyIvPjx0ZXh0IGZpbGw9IiMwMDAwMDAiIGZvbnQtZmFtaWx5PSJzYW5zLXNlcmlmIiBmb250LXNpemU9IjE0IiBsZW5ndGhBZGp1c3Q9InNwYWNpbmciIHRleHRMZW5ndGg9IjExMiIgeD0iMjI5IiB5PSI3OC43MzQ0Ij5NYW5hZ2UgSW52ZW50b3J5PC90ZXh0PjxlbGxpcHNlIGN4PSIyMjAiIGN5PSI4OS40NzY2IiBmaWxsPSJub25lIiByeD0iMyIgcnk9IjMiIHN0eWxlPSJzdHJva2U6IzAzODA0ODtzdHJva2Utd2lkdGg6MS4wOyIvPjx0ZXh0IGZpbGw9IiMwMDAwMDAiIGZvbnQtZmFtaWx5PSJzYW5zLXNlcmlmIiBmb250LXNpemU9IjE0IiBsZW5ndGhBZGp1c3Q9InNwYWNpbmciIHRleHRMZW5ndGg9IjExMyIgeD0iMjI5IiB5PSI5My43MTg4Ij5BZGQgTmV3IFByb2R1Y3RzPC90ZXh0PjxlbGxpcHNlIGN4PSIyMjAiIGN5PSIxMDQuNDYwOSIgZmlsbD0ibm9uZSIgcng9IjMiIHJ5PSIzIiBzdHlsZT0ic3Ryb2tlOiMwMzgwNDg7c3Ryb2tlLXdpZHRoOjEuMDsiLz48dGV4dCBmaWxsPSIjMDAwMDAwIiBmb250LWZhbWlseT0ic2Fucy1zZXJpZiIgZm9udC1zaXplPSIxNCIgbGVuZ3RoQWRqdXN0PSJzcGFjaW5nIiB0ZXh0TGVuZ3RoPSI5OCIgeD0iMjI5IiB5PSIxMDguNzAzMSI+RnVsZmlsbCBPcmRlcnM8L3RleHQ+PGVsbGlwc2UgY3g9IjIyMCIgY3k9IjExOS40NDUzIiBmaWxsPSJub25lIiByeD0iMyIgcnk9IjMiIHN0eWxlPSJzdHJva2U6IzAzODA0ODtzdHJva2Utd2lkdGg6MS4wOyIvPjx0ZXh0IGZpbGw9IiMwMDAwMDAiIGZvbnQtZmFtaWx5PSJzYW5zLXNlcmlmIiBmb250LXNpemU9IjE0IiBsZW5ndGhBZGp1c3Q9InNwYWNpbmciIHRleHRMZW5ndGg9IjEwNiIgeD0iMjI5IiB5PSIxMjMuNjg3NSI+VmlldyBTYWxlcyBEYXRhPC90ZXh0PjxlbGxpcHNlIGN4PSIyMjAiIGN5PSIxMzQuNDI5NyIgZmlsbD0ibm9uZSIgcng9IjMiIHJ5PSIzIiBzdHlsZT0ic3Ryb2tlOiMwMzgwNDg7c3Ryb2tlLXdpZHRoOjEuMDsiLz48dGV4dCBmaWxsPSIjMDAwMDAwIiBmb250LWZhbWlseT0ic2Fucy1zZXJpZiIgZm9udC1zaXplPSIxNCIgbGVuZ3RoQWRqdXN0PSJzcGFjaW5nIiB0ZXh0TGVuZ3RoPSIxMTIiIHg9IjIyOSIgeT0iMTM4LjY3MTkiPkdlbmVyYXRlIFJlcG9ydHM8L3RleHQ+PGxpbmUgc3R5bGU9InN0cm9rZTojMTgxODE4O3N0cm9rZS13aWR0aDowLjU7IiB4MT0iMjEwIiB4Mj0iMzQ3IiB5MT0iMTQ0LjQyMTkiIHkyPSIxNDQuNDIxOSIvPjwvZz48IS0tY2xhc3MgRXh0ZXJuYWwgU3lzdGVtcy0tPjxnIGlkPSJlbGVtX0V4dGVybmFsIFN5c3RlbXMiPjxyZWN0IGNvZGVMaW5lPSIyNiIgZmlsbD0iI0YxRjFGMSIgaGVpZ2h0PSI3Ny45Njg4IiBpZD0iRXh0ZXJuYWwgU3lzdGVtcyIgcng9IjIuNSIgcnk9IjIuNSIgc3R5bGU9InN0cm9rZTojMTgxODE4O3N0cm9rZS13aWR0aDowLjU7IiB3aWR0aD0iMTUyIiB4PSIxMDguNSIgeT0iNDQ4Ii8+PGVsbGlwc2UgY3g9IjEyNi42NSIgY3k9IjQ2NCIgZmlsbD0iI0FERDFCMiIgcng9IjExIiByeT0iMTEiIHN0eWxlPSJzdHJva2U6IzE4MTgxODtzdHJva2Utd2lkdGg6MS4wOyIvPjxwYXRoIGQ9Ik0xMjQuMjc1LDQ2OC4yNSBMMTI0LjI3NSw0NzAgTDEyOS4yMTI1LDQ3MCBMMTI5LjIxMjUsNDY4LjI1IEwxMjQuMjc1LDQ2OC4yNSBaIE0xMjQuOTYyNSw0NjguOTM3NSBRMTI0Ljk2MjUsNDY4LjkzNzUgMTI0Ljk2MjUsNDU5Ljc1IEwxMjMuMjEyNSw0NTkuNzUgUTEyMy4yMTI1LDQ1OS43NSAxMjMuMjEyNSw0NjguOTM3NSBMMTI0Ljk2MjUsNDY4LjkzNzUgWiBNMTI4LjUyNSw0NjguOTM3NSBMMTMwLjI3NSw0NjguOTM3NSBRMTMwLjI3NSw0NjguOTM3NSAxMzAuMjc1LDQ2Ni4xMjUgTDEyOC41MjUsNDY2LjEyNSBRMTI4LjUyNSw0NjYuMTI1IDEyOC41MjUsNDY4LjkzNzUgWiBNMTI4LjUyNSw0NTkuNzUgUTEyOC41MjUsNDU5Ljc1IDEyOC41MjUsNDYyLjU2MjUgTDEzMC4yNzUsNDYyLjU2MjUgUTEzMC4yNzUsNDYyLjU2MjUgMTMwLjI3NSw0NTkuNzUgTDEyOC41MjUsNDU5Ljc1IFogTTEyNC4yNzUsNDYwLjQzNzUgTDEyOS4yMTI1LDQ2MC40Mzc1IEwxMjkuMjEyNSw0NTguNjg3NSBMMTI0LjI3NSw0NTguNjg3NSBMMTI0LjI3NSw0NjAuNDM3NSBaICIgZmlsbD0iIzAwMDAwMCIvPjx0ZXh0IGZpbGw9IiMwMDAwMDAiIGZvbnQtZmFtaWx5PSJzYW5zLXNlcmlmIiBmb250LXNpemU9IjE0IiBsZW5ndGhBZGp1c3Q9InNwYWNpbmciIHRleHRMZW5ndGg9IjExMyIgeD0iMTQxLjM1IiB5PSI0NjkuNzQyMiI+RXh0ZXJuYWwgU3lzdGVtczwvdGV4dD48bGluZSBzdHlsZT0ic3Ryb2tlOiMxODE4MTg7c3Ryb2tlLXdpZHRoOjAuNTsiIHgxPSIxMDkuNSIgeDI9IjI1OS41IiB5MT0iNDgwIiB5Mj0iNDgwIi8+PGVsbGlwc2UgY3g9IjExOS41IiBjeT0iNDkyLjk5MjIiIGZpbGw9Im5vbmUiIHJ4PSIzIiByeT0iMyIgc3R5bGU9InN0cm9rZTojMDM4MDQ4O3N0cm9rZS13aWR0aDoxLjA7Ii8+PHRleHQgZmlsbD0iIzAwMDAwMCIgZm9udC1mYW1pbHk9InNhbnMtc2VyaWYiIGZvbnQtc2l6ZT0iMTQiIGxlbmd0aEFkanVzdD0ic3BhY2luZyIgdGV4dExlbmd0aD0iMTE0IiB4PSIxMjguNSIgeT0iNDk3LjIzNDQiPlBheW1lbnQgR2F0ZXdheXM8L3RleHQ+PGVsbGlwc2UgY3g9IjExOS41IiBjeT0iNTA3Ljk3NjYiIGZpbGw9Im5vbmUiIHJ4PSIzIiByeT0iMyIgc3R5bGU9InN0cm9rZTojMDM4MDQ4O3N0cm9rZS13aWR0aDoxLjA7Ii8+PHRleHQgZmlsbD0iIzAwMDAwMCIgZm9udC1mYW1pbHk9InNhbnMtc2VyaWYiIGZvbnQtc2l6ZT0iMTQiIGxlbmd0aEFkanVzdD0ic3BhY2luZyIgdGV4dExlbmd0aD0iMTI2IiB4PSIxMjguNSIgeT0iNTEyLjIxODgiPlNoaXBwaW5nIFByb3ZpZGVyczwvdGV4dD48bGluZSBzdHlsZT0ic3Ryb2tlOiMxODE4MTg7c3Ryb2tlLXdpZHRoOjAuNTsiIHgxPSIxMDkuNSIgeDI9IjI1OS41IiB5MT0iNTE3Ljk2ODgiIHkyPSI1MTcuOTY4OCIvPjwvZz48IS0tY2xhc3MgU2hvZXogT25saW5lLS0+PGcgaWQ9ImVsZW1fU2hvZXogT25saW5lIj48cmVjdCBjb2RlTGluZT0iMzEiIGZpbGw9IiNGMUYxRjEiIGhlaWdodD0iMTIyLjkyMTkiIGlkPSJTaG9leiBPbmxpbmUiIHJ4PSIyLjUiIHJ5PSIyLjUiIHN0eWxlPSJzdHJva2U6IzE4MTgxODtzdHJva2Utd2lkdGg6MC41OyIgd2lkdGg9IjIxNiIgeD0iNzYuNSIgeT0iMjUwIi8+PGVsbGlwc2UgY3g9IjEzOC4yNSIgY3k9IjI2NiIgZmlsbD0iI0FERDFCMiIgcng9IjExIiByeT0iMTEiIHN0eWxlPSJzdHJva2U6IzE4MTgxODtzdHJva2Utd2lkdGg6MS4wOyIvPjxwYXRoIGQ9Ik0xMzUuODc1LDI3MC4yNSBMMTM1Ljg3NSwyNzIgTDE0MC44MTI1LDI3MiBMMTQwLjgxMjUsMjcwLjI1IEwxMzUuODc1LDI3MC4yNSBaIE0xMzYuNTYyNSwyNzAuOTM3NSBRMTM2LjU2MjUsMjcwLjkzNzUgMTM2LjU2MjUsMjYxLjc1IEwxMzQuODEyNSwyNjEuNzUgUTEzNC44MTI1LDI2MS43NSAxMzQuODEyNSwyNzAuOTM3NSBMMTM2LjU2MjUsMjcwLjkzNzUgWiBNMTQwLjEyNSwyNzAuOTM3NSBMMTQxLjg3NSwyNzAuOTM3NSBRMTQxLjg3NSwyNzAuOTM3NSAxNDEuODc1LDI2OC4xMjUgTDE0MC4xMjUsMjY4LjEyNSBRMTQwLjEyNSwyNjguMTI1IDE0MC4xMjUsMjcwLjkzNzUgWiBNMTQwLjEyNSwyNjEuNzUgUTE0MC4xMjUsMjYxLjc1IDE0MC4xMjUsMjY0LjU2MjUgTDE0MS44NzUsMjY0LjU2MjUgUTE0MS44NzUsMjY0LjU2MjUgMTQxLjg3NSwyNjEuNzUgTDE0MC4xMjUsMjYxLjc1IFogTTEzNS44NzUsMjYyLjQzNzUgTDE0MC44MTI1LDI2Mi40Mzc1IEwxNDAuODEyNSwyNjAuNjg3NSBMMTM1Ljg3NSwyNjAuNjg3NSBMMTM1Ljg3NSwyNjIuNDM3NSBaICIgZmlsbD0iIzAwMDAwMCIvPjx0ZXh0IGZpbGw9IiMwMDAwMDAiIGZvbnQtZmFtaWx5PSJzYW5zLXNlcmlmIiBmb250LXNpemU9IjE0IiBsZW5ndGhBZGp1c3Q9InNwYWNpbmciIHRleHRMZW5ndGg9Ijg0IiB4PSIxNTguNzUiIHk9IjI3MS43NDIyIj5TaG9leiBPbmxpbmU8L3RleHQ+PGxpbmUgc3R5bGU9InN0cm9rZTojMTgxODE4O3N0cm9rZS13aWR0aDowLjU7IiB4MT0iNzcuNSIgeDI9IjI5MS41IiB5MT0iMjgyIiB5Mj0iMjgyIi8+PGxpbmUgc3R5bGU9InN0cm9rZTojMTgxODE4O3N0cm9rZS13aWR0aDowLjU7IiB4MT0iNzcuNSIgeDI9IjI5MS41IiB5MT0iMjkwIiB5Mj0iMjkwIi8+PGVsbGlwc2UgY3g9Ijg3LjUiIGN5PSIzMDIuOTkyMiIgZmlsbD0iIzg0QkU4NCIgcng9IjMiIHJ5PSIzIiBzdHlsZT0ic3Ryb2tlOiMwMzgwNDg7c3Ryb2tlLXdpZHRoOjEuMDsiLz48dGV4dCBmaWxsPSIjMDAwMDAwIiBmb250LWZhbWlseT0ic2Fucy1zZXJpZiIgZm9udC1zaXplPSIxNCIgbGVuZ3RoQWRqdXN0PSJzcGFjaW5nIiB0ZXh0TGVuZ3RoPSIxMjYiIHg9Ijk2LjUiIHk9IjMwNy4yMzQ0Ij5TZWFyY2ggYnkgQ2F0ZWdvcnk8L3RleHQ+PGVsbGlwc2UgY3g9Ijg3LjUiIGN5PSIzMTcuOTc2NiIgZmlsbD0iIzg0QkU4NCIgcng9IjMiIHJ5PSIzIiBzdHlsZT0ic3Ryb2tlOiMwMzgwNDg7c3Ryb2tlLXdpZHRoOjEuMDsiLz48dGV4dCBmaWxsPSIjMDAwMDAwIiBmb250LWZhbWlseT0ic2Fucy1zZXJpZiIgZm9udC1zaXplPSIxNCIgbGVuZ3RoQWRqdXN0PSJzcGFjaW5nIiB0ZXh0TGVuZ3RoPSIxMDUiIHg9Ijk2LjUiIHk9IjMyMi4yMTg4Ij5TZWFyY2ggYnkgQnJhbmQ8L3RleHQ+PGVsbGlwc2UgY3g9Ijg3LjUiIGN5PSIzMzIuOTYwOSIgZmlsbD0iIzg0QkU4NCIgcng9IjMiIHJ5PSIzIiBzdHlsZT0ic3Ryb2tlOiMwMzgwNDg7c3Ryb2tlLXdpZHRoOjEuMDsiLz48dGV4dCBmaWxsPSIjMDAwMDAwIiBmb250LWZhbWlseT0ic2Fucy1zZXJpZiIgZm9udC1zaXplPSIxNCIgbGVuZ3RoQWRqdXN0PSJzcGFjaW5nIiB0ZXh0TGVuZ3RoPSI5OCIgeD0iOTYuNSIgeT0iMzM3LjIwMzEiPlNlYXJjaCBieSBTaXplPC90ZXh0PjxlbGxpcHNlIGN4PSI4Ny41IiBjeT0iMzQ3Ljk0NTMiIGZpbGw9IiM4NEJFODQiIHJ4PSIzIiByeT0iMyIgc3R5bGU9InN0cm9rZTojMDM4MDQ4O3N0cm9rZS13aWR0aDoxLjA7Ii8+PHRleHQgZmlsbD0iIzAwMDAwMCIgZm9udC1mYW1pbHk9InNhbnMtc2VyaWYiIGZvbnQtc2l6ZT0iMTQiIGxlbmd0aEFkanVzdD0ic3BhY2luZyIgdGV4dExlbmd0aD0iMTA1IiB4PSI5Ni41IiB5PSIzNTIuMTg3NSI+U2VhcmNoIGJ5IENvbG9yPC90ZXh0PjxlbGxpcHNlIGN4PSI4Ny41IiBjeT0iMzYyLjkyOTciIGZpbGw9IiM4NEJFODQiIHJ4PSIzIiByeT0iMyIgc3R5bGU9InN0cm9rZTojMDM4MDQ4O3N0cm9rZS13aWR0aDoxLjA7Ii8+PHRleHQgZmlsbD0iIzAwMDAwMCIgZm9udC1mYW1pbHk9InNhbnMtc2VyaWYiIGZvbnQtc2l6ZT0iMTQiIGxlbmd0aEFkanVzdD0ic3BhY2luZyIgdGV4dExlbmd0aD0iMTkwIiB4PSI5Ni41IiB5PSIzNjcuMTcxOSI+VmlldyBTaG9lcyBvbiBWaXJ0dWFsIE1vZGVsPC90ZXh0PjwvZz48IS0tbGluayBDdXN0b21lciB0byBTaG9leiBPbmxpbmUtLT48ZyBpZD0ibGlua19DdXN0b21lcl9TaG9leiBPbmxpbmUiPjxwYXRoIGNvZGVMaW5lPSIzOSIgZD0iTTEyNi4zMSwxNzUuMjMgQzEzNi45OSwyMDAuMDcgMTQxLjM4NTMsMjEwLjI4NTggMTUxLjMyNTMsMjMzLjM4NTggIiBmaWxsPSJub25lIiBpZD0iQ3VzdG9tZXItdG8tU2hvZXogT25saW5lIiBzdHlsZT0ic3Ryb2tlOiMxODE4MTg7c3Ryb2tlLXdpZHRoOjEuMDsiLz48cG9seWdvbiBmaWxsPSJub25lIiBwb2ludHM9IjE1OC40NCwyNDkuOTIsMTU2LjgzNjcsMjMxLjAxNDIsMTQ1LjgxMzksMjM1Ljc1NzMsMTU4LjQ0LDI0OS45MiIgc3R5bGU9InN0cm9rZTojMTgxODE4O3N0cm9rZS13aWR0aDoxLjA7Ii8+PHRleHQgZmlsbD0iIzAwMDAwMCIgZm9udC1mYW1pbHk9InNhbnMtc2VyaWYiIGZvbnQtc2l6ZT0iMTMiIGxlbmd0aEFkanVzdD0ic3BhY2luZyIgdGV4dExlbmd0aD0iMjgiIHg9IjE0NC41IiB5PSIyMTguMjg5MSI+VXNlczwvdGV4dD48L2c+PCEtLWxpbmsgQWRtaW4gdG8gU2hvZXogT25saW5lLS0+PGcgaWQ9ImxpbmtfQWRtaW5fU2hvZXogT25saW5lIj48cGF0aCBjb2RlTGluZT0iNDAiIGQ9Ik0yNTIuNDQsMTUyLjU3IEMyMzkuNCwxODIuODkgMjMwLjc3NDIsMjAyLjk0NTYgMjE3LjcyNDIsMjMzLjI3NTYgIiBmaWxsPSJub25lIiBpZD0iQWRtaW4tdG8tU2hvZXogT25saW5lIiBzdHlsZT0ic3Ryb2tlOiMxODE4MTg7c3Ryb2tlLXdpZHRoOjEuMDsiLz48cG9seWdvbiBmaWxsPSJub25lIiBwb2ludHM9IjIxMC42MSwyNDkuODEsMjIzLjIzNTcsMjM1LjY0NywyMTIuMjEyNywyMzAuOTA0MSwyMTAuNjEsMjQ5LjgxIiBzdHlsZT0ic3Ryb2tlOiMxODE4MTg7c3Ryb2tlLXdpZHRoOjEuMDsiLz48dGV4dCBmaWxsPSIjMDAwMDAwIiBmb250LWZhbWlseT0ic2Fucy1zZXJpZiIgZm9udC1zaXplPSIxMyIgbGVuZ3RoQWRqdXN0PSJzcGFjaW5nIiB0ZXh0TGVuZ3RoPSI0OSIgeD0iMjI5LjUiIHk9IjIxOC4yODkxIj5NYW5hZ2VzPC90ZXh0PjwvZz48IS0tbGluayBTaG9leiBPbmxpbmUgdG8gRXh0ZXJuYWwgU3lzdGVtcy0tPjxnIGlkPSJsaW5rX1Nob2V6IE9ubGluZV9FeHRlcm5hbCBTeXN0ZW1zIj48cGF0aCBjb2RlTGluZT0iNDEiIGQ9Ik0xODQuNSwzNzMuMTggQzE4NC41LDM5OCAxODQuNSw0MDcuOTYgMTg0LjUsNDI5Ljg0ICIgZmlsbD0ibm9uZSIgaWQ9IlNob2V6IE9ubGluZS10by1FeHRlcm5hbCBTeXN0ZW1zIiBzdHlsZT0ic3Ryb2tlOiMxODE4MTg7c3Ryb2tlLXdpZHRoOjEuMDsiLz48cG9seWdvbiBmaWxsPSJub25lIiBwb2ludHM9IjE4NC41LDQ0Ny44NCwxOTAuNSw0MjkuODQsMTc4LjUsNDI5Ljg0LDE4NC41LDQ0Ny44NCIgc3R5bGU9InN0cm9rZTojMTgxODE4O3N0cm9rZS13aWR0aDoxLjA7Ii8+PHRleHQgZmlsbD0iIzAwMDAwMCIgZm9udC1mYW1pbHk9InNhbnMtc2VyaWYiIGZvbnQtc2l6ZT0iMTMiIGxlbmd0aEFkanVzdD0ic3BhY2luZyIgdGV4dExlbmd0aD0iMTEyIiB4PSIxODUuNSIgeT0iNDE2LjI4OTEiPkNvbW11bmljYXRlcyB3aXRoPC90ZXh0PjwvZz48IS0tU1JDPVtUTDkxU2ppbTNCcGg1S1lrZE5tV1h5eDhhazljOWhPeGFQcXhHaThNbm5KZjhRNnVJZmdfNXZKS2s3UUo4dFUxbk1CMUFxclJ1bVdVZ3NBVEItU0Y1SVlCQ01QTlZfN0xQYmFjeVdBX053d2hueGt5Z0MwdWZoMTVISHpTY1FfcE1Mdk5lOTduNlVFOUFIdk1jbjgyQUtRdGl2SGJmeDU1NXpjdDVFMGowX1pzYXFCcTNZdFNrd3FGQlJCblJpMm5SeWFuYkNIZVI0cEdCRlhaOUFXUkp5Q3hybmhPR3U2MVh1eFc1VDQ4RFFKc2xYbFcxVXU5OWhOcU5XVEtVclc1Qkd2Z0hrdTZoSVQzbm1keU9TSFZ3QkZ0VnF0ZGtaTGtUQm4wWHBsOW5SczhPWWdTaDJuNUdKcGVKbDRXVVRWUGhSNXNMM3FEZ1Q1SVg1ODJJejJTNzBMYVlQeUVGYVpac1RKaHdmVDRkakFmLXlaS25raWZqMmNTa05HVWlIXzR3eU9TM2lSamFlU05DdW15cnFndmxTQkFNUmRGZ0ZGTTRaVFVscWlwT0wwREZGVUk5akRrdEVlcFVYUkd3SS11c2hwSUx3aFUtZDM2WkxjYUt1OXR5NkcyVHhCY21ja29vVlY3OXhjdi1WdHpxbGlqUkE5eVdWNGNkblVDSHVoUDFKNE1fdl9naEpYaXN5dVA5VWo3RTFma19XMDBdLS0+PC9nPjwvc3ZnPg==;" vertex="1" parent="1">
            <mxGeometry x="20" y="20" width="355" height="532" as="geometry" />
          </mxCell>
        </UserObject>
        <UserObject label="" plantUmlData="{&#xa;  &quot;data&quot;: &quot;@startuml\n!define UC usecase\n!define ACT actor\n\nleft to right direction\n\nactor Customer as C\nactor Admin as A\nUC \&quot;Browse Shoes\&quot; as Browse\nUC \&quot;Add to Cart\&quot; as AddToCart\nUC \&quot;Proceed to Checkout\&quot; as Checkout\nUC \&quot;Make Payment\&quot; as Payment\nUC \&quot;Track Order Status\&quot; as TrackStatus\nUC \&quot;View Order History\&quot; as ViewHistory\nUC \&quot;Manage Inventory\&quot; as ManageInventory\nUC \&quot;Add New Products\&quot; as AddProducts\nUC \&quot;Fulfill Orders\&quot; as FulfillOrders\nUC \&quot;View Sales Data\&quot; as ViewSalesData\nUC \&quot;Generate Reports\&quot; as GenerateReports\nUC \&quot;Communicate with External Systems\&quot; as CommunicateExternal\n\nC --&gt; Browse\nC --&gt; AddToCart\nC --&gt; Checkout\nC --&gt; Payment\nC --&gt; TrackStatus\nC --&gt; ViewHistory\n\nA --&gt; ManageInventory\nA --&gt; AddProducts\nA --&gt; FulfillOrders\nA --&gt; ViewSalesData\nA --&gt; GenerateReports\n\nBrowse --&gt; \&quot;Shoez Online\&quot; : (Include)\nAddToCart --&gt; \&quot;Shoez Online\&quot; : (Include)\nCheckout --&gt; \&quot;Shoez Online\&quot; : (Include)\nPayment --&gt; \&quot;Shoez Online\&quot; : (Include)\nTrackStatus --&gt; \&quot;Shoez Online\&quot; : (Include)\nViewHistory --&gt; \&quot;Shoez Online\&quot; : (Include)\n\n\&quot;Shoez Online\&quot; --&gt; CommunicateExternal : (Extend)\n@enduml\n&quot;,&#xa;  &quot;format&quot;: &quot;svg&quot;&#xa;}" id="uCpsXzkTBloRi5_xqusf-2">
          <mxCell style="shape=image;noLabel=1;verticalAlign=top;aspect=fixed;imageAspect=0;image=data:image/svg+xml,PD94bWwgdmVyc2lvbj0iMS4wIiBlbmNvZGluZz0idXMtYXNjaWkiIHN0YW5kYWxvbmU9Im5vIj8+PHN2ZyB4bWxucz0iaHR0cDovL3d3dy53My5vcmcvMjAwMC9zdmciIHhtbG5zOnhsaW5rPSJodHRwOi8vd3d3LnczLm9yZy8xOTk5L3hsaW5rIiBjb250ZW50U3R5bGVUeXBlPSJ0ZXh0L2NzcyIgaGVpZ2h0PSI3NDBweCIgcHJlc2VydmVBc3BlY3RSYXRpbz0ibm9uZSIgc3R5bGU9IndpZHRoOjg4M3B4O2hlaWdodDo3NDBweDtiYWNrZ3JvdW5kOiNGRkZGRkY7IiB2ZXJzaW9uPSIxLjEiIHZpZXdCb3g9IjAgMCA4ODMgNzQwIiB3aWR0aD0iODgzcHgiIHpvb21BbmRQYW49Im1hZ25pZnkiPjxkZWZzLz48Zz48IS0tZW50aXR5IEMtLT48ZyBpZD0iZWxlbV9DIj48ZWxsaXBzZSBjeD0iMzQuNSIgY3k9IjUwMC41IiBmaWxsPSIjRjFGMUYxIiByeD0iOCIgcnk9IjgiIHN0eWxlPSJzdHJva2U6IzE4MTgxODtzdHJva2Utd2lkdGg6MC41OyIvPjxwYXRoIGQ9Ik0zNC41LDUwOC41IEwzNC41LDUzNS41IE0yMS41LDUxNi41IEw0Ny41LDUxNi41IE0zNC41LDUzNS41IEwyMS41LDU1MC41IE0zNC41LDUzNS41IEw0Ny41LDU1MC41ICIgZmlsbD0ibm9uZSIgc3R5bGU9InN0cm9rZTojMTgxODE4O3N0cm9rZS13aWR0aDowLjU7Ii8+PHRleHQgZmlsbD0iIzAwMDAwMCIgZm9udC1mYW1pbHk9InNhbnMtc2VyaWYiIGZvbnQtc2l6ZT0iMTQiIGxlbmd0aEFkanVzdD0ic3BhY2luZyIgdGV4dExlbmd0aD0iNTciIHg9IjYiIHk9IjU2NS4yMzQ0Ij5DdXN0b21lcjwvdGV4dD48L2c+PCEtLWVudGl0eSBBLS0+PGcgaWQ9ImVsZW1fQSI+PGVsbGlwc2UgY3g9IjM0LjUiIGN5PSIxMzMuNSIgZmlsbD0iI0YxRjFGMSIgcng9IjgiIHJ5PSI4IiBzdHlsZT0ic3Ryb2tlOiMxODE4MTg7c3Ryb2tlLXdpZHRoOjAuNTsiLz48cGF0aCBkPSJNMzQuNSwxNDEuNSBMMzQuNSwxNjguNSBNMjEuNSwxNDkuNSBMNDcuNSwxNDkuNSBNMzQuNSwxNjguNSBMMjEuNSwxODMuNSBNMzQuNSwxNjguNSBMNDcuNSwxODMuNSAiIGZpbGw9Im5vbmUiIHN0eWxlPSJzdHJva2U6IzE4MTgxODtzdHJva2Utd2lkdGg6MC41OyIvPjx0ZXh0IGZpbGw9IiMwMDAwMDAiIGZvbnQtZmFtaWx5PSJzYW5zLXNlcmlmIiBmb250LXNpemU9IjE0IiBsZW5ndGhBZGp1c3Q9InNwYWNpbmciIHRleHRMZW5ndGg9IjM2IiB4PSIxNi41IiB5PSIxOTguMjM0NCI+QWRtaW48L3RleHQ+PC9nPjxnIGlkPSJlbGVtX0Jyb3dzZSI+PGVsbGlwc2UgY3g9IjIwOC4yODI3IiBjeT0iMzY5LjI1NjUiIGZpbGw9IiNGMUYxRjEiIHJ4PSI2NC4yODI3IiByeT0iMTUuMjU2NSIgc3R5bGU9InN0cm9rZTojMTgxODE4O3N0cm9rZS13aWR0aDowLjU7Ii8+PHRleHQgZmlsbD0iIzAwMDAwMCIgZm9udC1mYW1pbHk9InNhbnMtc2VyaWYiIGZvbnQtc2l6ZT0iMTQiIGxlbmd0aEFkanVzdD0ic3BhY2luZyIgdGV4dExlbmd0aD0iODUiIHg9IjE2NS43ODI3IiB5PSIzNzIuOTk4NyI+QnJvd3NlIFNob2VzPC90ZXh0PjwvZz48ZyBpZD0iZWxlbV9BZGRUb0NhcnQiPjxlbGxpcHNlIGN4PSIyMDguNjY4NSIgY3k9IjQzNC42MzM3IiBmaWxsPSIjRjFGMUYxIiByeD0iNjEuMTY4NSIgcnk9IjE0LjYzMzciIHN0eWxlPSJzdHJva2U6IzE4MTgxODtzdHJva2Utd2lkdGg6MC41OyIvPjx0ZXh0IGZpbGw9IiMwMDAwMDAiIGZvbnQtZmFtaWx5PSJzYW5zLXNlcmlmIiBmb250LXNpemU9IjE0IiBsZW5ndGhBZGp1c3Q9InNwYWNpbmciIHRleHRMZW5ndGg9Ijc3IiB4PSIxNzAuMTY4NSIgeT0iNDM4LjM3NTkiPkFkZCB0byBDYXJ0PC90ZXh0PjwvZz48ZyBpZD0iZWxlbV9DaGVja291dCI+PGVsbGlwc2UgY3g9IjIwOC42MDYyIiBjeT0iNTAzLjMyMTIiIGZpbGw9IiNGMUYxRjEiIHJ4PSI4NC42MDYyIiByeT0iMTkuMzIxMiIgc3R5bGU9InN0cm9rZTojMTgxODE4O3N0cm9rZS13aWR0aDowLjU7Ii8+PHRleHQgZmlsbD0iIzAwMDAwMCIgZm9udC1mYW1pbHk9InNhbnMtc2VyaWYiIGZvbnQtc2l6ZT0iMTQiIGxlbmd0aEFkanVzdD0ic3BhY2luZyIgdGV4dExlbmd0aD0iMTMzIiB4PSIxNDIuMTA2MiIgeT0iNTA3LjA2MzQiPlByb2NlZWQgdG8gQ2hlY2tvdXQ8L3RleHQ+PC9nPjxnIGlkPSJlbGVtX1BheW1lbnQiPjxlbGxpcHNlIGN4PSIyMDguMjgyNyIgY3k9IjU3My4yNTY1IiBmaWxsPSIjRjFGMUYxIiByeD0iNjQuMjgyNyIgcnk9IjE1LjI1NjUiIHN0eWxlPSJzdHJva2U6IzE4MTgxODtzdHJva2Utd2lkdGg6MC41OyIvPjx0ZXh0IGZpbGw9IiMwMDAwMDAiIGZvbnQtZmFtaWx5PSJzYW5zLXNlcmlmIiBmb250LXNpemU9IjE0IiBsZW5ndGhBZGp1c3Q9InNwYWNpbmciIHRleHRMZW5ndGg9Ijg1IiB4PSIxNjUuNzgyNyIgeT0iNTc2Ljk5ODciPk1ha2UgUGF5bWVudDwvdGV4dD48L2c+PGcgaWQ9ImVsZW1fVHJhY2tTdGF0dXMiPjxlbGxpcHNlIGN4PSIyMDguNTEzMiIgY3k9IjY0Mi43MDI2IiBmaWxsPSIjRjFGMUYxIiByeD0iODEuNTEzMiIgcnk9IjE4LjcwMjYiIHN0eWxlPSJzdHJva2U6IzE4MTgxODtzdHJva2Utd2lkdGg6MC41OyIvPjx0ZXh0IGZpbGw9IiMwMDAwMDAiIGZvbnQtZmFtaWx5PSJzYW5zLXNlcmlmIiBmb250LXNpemU9IjE0IiBsZW5ndGhBZGp1c3Q9InNwYWNpbmciIHRleHRMZW5ndGg9IjEyNiIgeD0iMTQ1LjUxMzIiIHk9IjY0Ni40NDQ4Ij5UcmFjayBPcmRlciBTdGF0dXM8L3RleHQ+PC9nPjxnIGlkPSJlbGVtX1ZpZXdIaXN0b3J5Ij48ZWxsaXBzZSBjeD0iMjA4LjQ1MyIgY3k9IjcxNS4yOTA2IiBmaWxsPSIjRjFGMUYxIiByeD0iODEuOTUzIiByeT0iMTguNzkwNiIgc3R5bGU9InN0cm9rZTojMTgxODE4O3N0cm9rZS13aWR0aDowLjU7Ii8+PHRleHQgZmlsbD0iIzAwMDAwMCIgZm9udC1mYW1pbHk9InNhbnMtc2VyaWYiIGZvbnQtc2l6ZT0iMTQiIGxlbmd0aEFkanVzdD0ic3BhY2luZyIgdGV4dExlbmd0aD0iMTI3IiB4PSIxNDQuOTUzIiB5PSI3MTkuMDMyOCI+VmlldyBPcmRlciBIaXN0b3J5PC90ZXh0PjwvZz48ZyBpZD0iZWxlbV9NYW5hZ2VJbnZlbnRvcnkiPjxlbGxpcHNlIGN4PSIyMDguNDM4NCIgY3k9IjIzLjQ4NzciIGZpbGw9IiNGMUYxRjEiIHJ4PSI3NS40Mzg0IiByeT0iMTcuNDg3NyIgc3R5bGU9InN0cm9rZTojMTgxODE4O3N0cm9rZS13aWR0aDowLjU7Ii8+PHRleHQgZmlsbD0iIzAwMDAwMCIgZm9udC1mYW1pbHk9InNhbnMtc2VyaWYiIGZvbnQtc2l6ZT0iMTQiIGxlbmd0aEFkanVzdD0ic3BhY2luZyIgdGV4dExlbmd0aD0iMTEyIiB4PSIxNTIuNDM4NCIgeT0iMjcuMjI5OSI+TWFuYWdlIEludmVudG9yeTwvdGV4dD48L2c+PGcgaWQ9ImVsZW1fQWRkUHJvZHVjdHMiPjxlbGxpcHNlIGN4PSIyMDguMzY2OCIgY3k9IjkzLjU3MzQiIGZpbGw9IiNGMUYxRjEiIHJ4PSI3NS44NjY4IiByeT0iMTcuNTczNCIgc3R5bGU9InN0cm9rZTojMTgxODE4O3N0cm9rZS13aWR0aDowLjU7Ii8+PHRleHQgZmlsbD0iIzAwMDAwMCIgZm9udC1mYW1pbHk9InNhbnMtc2VyaWYiIGZvbnQtc2l6ZT0iMTQiIGxlbmd0aEFkanVzdD0ic3BhY2luZyIgdGV4dExlbmd0aD0iMTEzIiB4PSIxNTEuODY2OCIgeT0iOTcuMzE1NSI+QWRkIE5ldyBQcm9kdWN0czwvdGV4dD48L2c+PGcgaWQ9ImVsZW1fRnVsZmlsbE9yZGVycyI+PGVsbGlwc2UgY3g9IjIwOC41NDU2IiBjeT0iMTYyLjMwOTEiIGZpbGw9IiNGMUYxRjEiIHJ4PSI2OS41NDU2IiByeT0iMTYuMzA5MSIgc3R5bGU9InN0cm9rZTojMTgxODE4O3N0cm9rZS13aWR0aDowLjU7Ii8+PHRleHQgZmlsbD0iIzAwMDAwMCIgZm9udC1mYW1pbHk9InNhbnMtc2VyaWYiIGZvbnQtc2l6ZT0iMTQiIGxlbmd0aEFkanVzdD0ic3BhY2luZyIgdGV4dExlbmd0aD0iOTgiIHg9IjE1OS41NDU2IiB5PSIxNjYuMDUxMyI+RnVsZmlsbCBPcmRlcnM8L3RleHQ+PC9nPjxnIGlkPSJlbGVtX1ZpZXdTYWxlc0RhdGEiPjxlbGxpcHNlIGN4PSIyMDguMzg3OSIgY3k9IjIzMS40Nzc2IiBmaWxsPSIjRjFGMUYxIiByeD0iNzIuODg3OSIgcnk9IjE2Ljk3NzYiIHN0eWxlPSJzdHJva2U6IzE4MTgxODtzdHJva2Utd2lkdGg6MC41OyIvPjx0ZXh0IGZpbGw9IiMwMDAwMDAiIGZvbnQtZmFtaWx5PSJzYW5zLXNlcmlmIiBmb250LXNpemU9IjE0IiBsZW5ndGhBZGp1c3Q9InNwYWNpbmciIHRleHRMZW5ndGg9IjEwNiIgeD0iMTU1LjM4NzkiIHk9IjIzNS4yMTk4Ij5WaWV3IFNhbGVzIERhdGE8L3RleHQ+PC9nPjxnIGlkPSJlbGVtX0dlbmVyYXRlUmVwb3J0cyI+PGVsbGlwc2UgY3g9IjIwOC40Mzg0IiBjeT0iMzAxLjQ4NzciIGZpbGw9IiNGMUYxRjEiIHJ4PSI3NS40Mzg0IiByeT0iMTcuNDg3NyIgc3R5bGU9InN0cm9rZTojMTgxODE4O3N0cm9rZS13aWR0aDowLjU7Ii8+PHRleHQgZmlsbD0iIzAwMDAwMCIgZm9udC1mYW1pbHk9InNhbnMtc2VyaWYiIGZvbnQtc2l6ZT0iMTQiIGxlbmd0aEFkanVzdD0ic3BhY2luZyIgdGV4dExlbmd0aD0iMTEyIiB4PSIxNTIuNDM4NCIgeT0iMzA1LjIyOTkiPkdlbmVyYXRlIFJlcG9ydHM8L3RleHQ+PC9nPjxnIGlkPSJlbGVtX0NvbW11bmljYXRlRXh0ZXJuYWwiPjxlbGxpcHNlIGN4PSI3NDUuMDU2NSIgY3k9IjU0Mi4zMTEzIiBmaWxsPSIjRjFGMUYxIiByeD0iMTMyLjA1NjUiIHJ5PSIyOC44MTEzIiBzdHlsZT0ic3Ryb2tlOiMxODE4MTg7c3Ryb2tlLXdpZHRoOjAuNTsiLz48dGV4dCBmaWxsPSIjMDAwMDAwIiBmb250LWZhbWlseT0ic2Fucy1zZXJpZiIgZm9udC1zaXplPSIxNCIgbGVuZ3RoQWRqdXN0PSJzcGFjaW5nIiB0ZXh0TGVuZ3RoPSIyMzUiIHg9IjYyNy41NTY1IiB5PSI1NDYuMDUzNSI+Q29tbXVuaWNhdGUgd2l0aCBFeHRlcm5hbCBTeXN0ZW1zPC90ZXh0PjwvZz48IS0tZW50aXR5IFNob2V6IE9ubGluZS0tPjxnIGlkPSJlbGVtX1Nob2V6IE9ubGluZSI+PGVsbGlwc2UgY3g9IjQ1NiIgY3k9IjUxMy41IiBmaWxsPSIjRjFGMUYxIiByeD0iOCIgcnk9IjgiIHN0eWxlPSJzdHJva2U6IzE4MTgxODtzdHJva2Utd2lkdGg6MC41OyIvPjxwYXRoIGQ9Ik00NTYsNTIxLjUgTDQ1Niw1NDguNSBNNDQzLDUyOS41IEw0NjksNTI5LjUgTTQ1Niw1NDguNSBMNDQzLDU2My41IE00NTYsNTQ4LjUgTDQ2OSw1NjMuNSAiIGZpbGw9Im5vbmUiIHN0eWxlPSJzdHJva2U6IzE4MTgxODtzdHJva2Utd2lkdGg6MC41OyIvPjx0ZXh0IGZpbGw9IiMwMDAwMDAiIGZvbnQtZmFtaWx5PSJzYW5zLXNlcmlmIiBmb250LXNpemU9IjE0IiBsZW5ndGhBZGp1c3Q9InNwYWNpbmciIHRleHRMZW5ndGg9Ijg0IiB4PSI0MTQiIHk9IjU3OC4yMzQ0Ij5TaG9leiBPbmxpbmU8L3RleHQ+PC9nPjwhLS1saW5rIEMgdG8gQnJvd3NlLS0+PGcgaWQ9ImxpbmtfQ19Ccm93c2UiPjxwYXRoIGQ9Ik01My45MSw0OTEuOTIgQzY5LjI3LDQ2My45NSA5My41NCw0MjYuNTkgMTI0LDQwMi41IEMxMzUuODYsMzkzLjEyIDE0NS4wODY4LDM4OC4xNzU4IDE1OC45NjY4LDM4My4wODU4ICIgZmlsbD0ibm9uZSIgaWQ9IkMtdG8tQnJvd3NlIiBzdHlsZT0ic3Ryb2tlOiMxODE4MTg7c3Ryb2tlLXdpZHRoOjEuMDsiLz48cG9seWdvbiBmaWxsPSIjMTgxODE4IiBwb2ludHM9IjE2NC42LDM4MS4wMiwxNTQuNzczMSwzODAuMzYzMiwxNTkuOTA1NywzODIuNzQxNSwxNTcuNTI3NCwzODcuODc0MSwxNjQuNiwzODEuMDIiIHN0eWxlPSJzdHJva2U6IzE4MTgxODtzdHJva2Utd2lkdGg6MS4wOyIvPjwvZz48IS0tbGluayBDIHRvIEFkZFRvQ2FydC0tPjxnIGlkPSJsaW5rX0NfQWRkVG9DYXJ0Ij48cGF0aCBkPSJNNjMuMDEsNTA3LjE2IEM3OS45MSw0OTQuMTUgMTAyLjM5LDQ3OC4wOSAxMjQsNDY2LjUgQzEzOC45MSw0NTguNSAxNTAuNjEzLDQ1My41Mzc4IDE2NS42MjMsNDQ4LjE0NzggIiBmaWxsPSJub25lIiBpZD0iQy10by1BZGRUb0NhcnQiIHN0eWxlPSJzdHJva2U6IzE4MTgxODtzdHJva2Utd2lkdGg6MS4wOyIvPjxwb2x5Z29uIGZpbGw9IiMxODE4MTgiIHBvaW50cz0iMTcxLjI3LDQ0Ni4xMiwxNjEuNDQ3Nyw0NDUuMzk3LDE2Ni41NjQyLDQ0Ny44MDk4LDE2NC4xNTE0LDQ1Mi45MjYzLDE3MS4yNyw0NDYuMTIiIHN0eWxlPSJzdHJva2U6IzE4MTgxODtzdHJva2Utd2lkdGg6MS4wOyIvPjwvZz48IS0tbGluayBDIHRvIENoZWNrb3V0LS0+PGcgaWQ9ImxpbmtfQ19DaGVja291dCI+PHBhdGggZD0iTTYzLjEzLDUyNS4zMiBDODMuMTcsNTIyLjI5IDEwNS4yNzc1LDUxOC45NTczIDEzMS4zMjc1LDUxNS4wMTczICIgZmlsbD0ibm9uZSIgaWQ9IkMtdG8tQ2hlY2tvdXQiIHN0eWxlPSJzdHJva2U6IzE4MTgxODtzdHJva2Utd2lkdGg6MS4wOyIvPjxwb2x5Z29uIGZpbGw9IiMxODE4MTgiIHBvaW50cz0iMTM3LjI2LDUxNC4xMiwxMjcuNzYzLDUxMS41MTA5LDEzMi4zMTYyLDUxNC44Njc3LDEyOC45NTk0LDUxOS40MjA5LDEzNy4yNiw1MTQuMTIiIHN0eWxlPSJzdHJva2U6IzE4MTgxODtzdHJva2Utd2lkdGg6MS4wOyIvPjwvZz48IS0tbGluayBDIHRvIFBheW1lbnQtLT48ZyBpZD0ibGlua19DX1BheW1lbnQiPjxwYXRoIGQ9Ik02My4xMyw1MzYuNTcgQzkwLjIsNTQzLjQ5IDEyNi4wNDcxLDU1Mi42NjMyIDE1Ny42NzcxLDU2MC43NTMyICIgZmlsbD0ibm9uZSIgaWQ9IkMtdG8tUGF5bWVudCIgc3R5bGU9InN0cm9rZTojMTgxODE4O3N0cm9rZS13aWR0aDoxLjA7Ii8+PHBvbHlnb24gZmlsbD0iIzE4MTgxOCIgcG9pbnRzPSIxNjMuNDksNTYyLjI0LDE1NS43NjE5LDU1Ni4xMzQ2LDE1OC42NDU5LDU2MS4wMDEsMTUzLjc3OTUsNTYzLjg4NTEsMTYzLjQ5LDU2Mi4yNCIgc3R5bGU9InN0cm9rZTojMTgxODE4O3N0cm9rZS13aWR0aDoxLjA7Ii8+PC9nPjwhLS1saW5rIEMgdG8gVHJhY2tTdGF0dXMtLT48ZyBpZD0ibGlua19DX1RyYWNrU3RhdHVzIj48cGF0aCBkPSJNNjMuMiw1NTcuNTkgQzc5LjgxLDU3My4zNyAxMDEuOTMsNTkyLjYyIDEyNCw2MDYuNSBDMTM2LjQzLDYxNC4zMiAxNDUuMzA4Myw2MTguODg2MSAxNTguNjM4Myw2MjQuNDg2MSAiIGZpbGw9Im5vbmUiIGlkPSJDLXRvLVRyYWNrU3RhdHVzIiBzdHlsZT0ic3Ryb2tlOiMxODE4MTg7c3Ryb2tlLXdpZHRoOjEuMDsiLz48cG9seWdvbiBmaWxsPSIjMTgxODE4IiBwb2ludHM9IjE2NC4xNyw2MjYuODEsMTU3LjQyMTcsNjE5LjYzNjQsMTU5LjU2MDMsNjI0Ljg3MzQsMTU0LjMyMzIsNjI3LjAxMiwxNjQuMTcsNjI2LjgxIiBzdHlsZT0ic3Ryb2tlOiMxODE4MTg7c3Ryb2tlLXdpZHRoOjEuMDsiLz48L2c+PCEtLWxpbmsgQyB0byBWaWV3SGlzdG9yeS0tPjxnIGlkPSJsaW5rX0NfVmlld0hpc3RvcnkiPjxwYXRoIGQ9Ik01MC4wOSw1NjcuMjkgQzY0LjUyLDYwMC4zOCA4OS40Niw2NDcuODQgMTI0LDY3OC41IEMxMzQuMiw2ODcuNTUgMTQxLjQ4MSw2OTIuMjc3MSAxNTMuOTQxLDY5Ny43NzcxICIgZmlsbD0ibm9uZSIgaWQ9IkMtdG8tVmlld0hpc3RvcnkiIHN0eWxlPSJzdHJva2U6IzE4MTgxODtzdHJva2Utd2lkdGg6MS4wOyIvPjxwb2x5Z29uIGZpbGw9IiMxODE4MTgiIHBvaW50cz0iMTU5LjQzLDcwMC4yLDE1Mi44MTE3LDY5Mi45MDYzLDE1NC44NTU4LDY5OC4xODA5LDE0OS41ODEyLDcwMC4yMjUsMTU5LjQzLDcwMC4yIiBzdHlsZT0ic3Ryb2tlOiMxODE4MTg7c3Ryb2tlLXdpZHRoOjEuMDsiLz48L2c+PCEtLWxpbmsgQSB0byBNYW5hZ2VJbnZlbnRvcnktLT48ZyBpZD0ibGlua19BX01hbmFnZUludmVudG9yeSI+PHBhdGggZD0iTTUyLjczLDEzNS45NCBDNjguODMsMTEyLjg4IDk0LjcyLDc5LjkxIDEyNCw1OC41IEMxMzUuNjcsNDkuOTYgMTQ0LjE3OTEsNDUuMjkzIDE1Ny40MDkxLDM5LjkzMyAiIGZpbGw9Im5vbmUiIGlkPSJBLXRvLU1hbmFnZUludmVudG9yeSIgc3R5bGU9InN0cm9rZTojMTgxODE4O3N0cm9rZS13aWR0aDoxLjA7Ii8+PHBvbHlnb24gZmlsbD0iIzE4MTgxOCIgcG9pbnRzPSIxNjIuOTcsMzcuNjgsMTUzLjEyNjYsMzcuMzUyMSwxNTguMzM1OSwzOS41NTc1LDE1Ni4xMzA2LDQ0Ljc2NjcsMTYyLjk3LDM3LjY4IiBzdHlsZT0ic3Ryb2tlOiMxODE4MTg7c3Ryb2tlLXdpZHRoOjEuMDsiLz48L2c+PCEtLWxpbmsgQSB0byBBZGRQcm9kdWN0cy0tPjxnIGlkPSJsaW5rX0FfQWRkUHJvZHVjdHMiPjxwYXRoIGQ9Ik01Mi43MywxNTQuMzUgQzY0LjA5LDE0OS4wNyA3OS4zMywxNDIuMTUgOTMsMTM2LjUgQzExNy4xNCwxMjYuNTIgMTM4Ljg3NTgsMTE4LjI3MyAxNjAuODA1OCwxMTAuMjQzICIgZmlsbD0ibm9uZSIgaWQ9IkEtdG8tQWRkUHJvZHVjdHMiIHN0eWxlPSJzdHJva2U6IzE4MTgxODtzdHJva2Utd2lkdGg6MS4wOyIvPjxwb2x5Z29uIGZpbGw9IiMxODE4MTgiIHBvaW50cz0iMTY2LjQ0LDEwOC4xOCwxNTYuNjEzNCwxMDcuNTE4NCwxNjEuNzQ0OSwxMDkuODk5MiwxNTkuMzY0MSwxMTUuMDMwNywxNjYuNDQsMTA4LjE4IiBzdHlsZT0ic3Ryb2tlOiMxODE4MTg7c3Ryb2tlLXdpZHRoOjEuMDsiLz48L2c+PCEtLWxpbmsgQSB0byBGdWxmaWxsT3JkZXJzLS0+PGcgaWQ9ImxpbmtfQV9GdWxmaWxsT3JkZXJzIj48cGF0aCBkPSJNNTIuNjIsMTYyLjUgQzcyLjc2LDE2Mi41IDEwMS40NCwxNjIuNSAxMzIuODgsMTYyLjUgIiBmaWxsPSJub25lIiBpZD0iQS10by1GdWxmaWxsT3JkZXJzIiBzdHlsZT0ic3Ryb2tlOiMxODE4MTg7c3Ryb2tlLXdpZHRoOjEuMDsiLz48cG9seWdvbiBmaWxsPSIjMTgxODE4IiBwb2ludHM9IjEzOC44OCwxNjIuNSwxMjkuODgsMTU4LjUsMTMzLjg4LDE2Mi41LDEyOS44OCwxNjYuNSwxMzguODgsMTYyLjUiIHN0eWxlPSJzdHJva2U6IzE4MTgxODtzdHJva2Utd2lkdGg6MS4wOyIvPjwvZz48IS0tbGluayBBIHRvIFZpZXdTYWxlc0RhdGEtLT48ZyBpZD0ibGlua19BX1ZpZXdTYWxlc0RhdGEiPjxwYXRoIGQ9Ik01Mi42MiwxNjkuMzcgQzgwLjA3LDE4MC4zOCAxMjguOTUxNCwxOTkuOTg2MSAxNjUuNDIxNCwyMTQuNjE2MSAiIGZpbGw9Im5vbmUiIGlkPSJBLXRvLVZpZXdTYWxlc0RhdGEiIHN0eWxlPSJzdHJva2U6IzE4MTgxODtzdHJva2Utd2lkdGg6MS4wOyIvPjxwb2x5Z29uIGZpbGw9IiMxODE4MTgiIHBvaW50cz0iMTcwLjk5LDIxNi44NSwxNjQuMTI2MywyMDkuNzg2OCwxNjYuMzQ5NSwyMTQuOTg4NCwxNjEuMTQ3OCwyMTcuMjExNiwxNzAuOTksMjE2Ljg1IiBzdHlsZT0ic3Ryb2tlOiMxODE4MTg7c3Ryb2tlLXdpZHRoOjEuMDsiLz48L2c+PCEtLWxpbmsgQSB0byBHZW5lcmF0ZVJlcG9ydHMtLT48ZyBpZD0ibGlua19BX0dlbmVyYXRlUmVwb3J0cyI+PHBhdGggZD0iTTUyLjczLDE4OS4wNiBDNjguODMsMjEyLjEyIDk0LjcyLDI0NS4wOSAxMjQsMjY2LjUgQzEzNS42NywyNzUuMDQgMTQ0LjE3OTEsMjc5LjcwNyAxNTcuNDA5MSwyODUuMDY3ICIgZmlsbD0ibm9uZSIgaWQ9IkEtdG8tR2VuZXJhdGVSZXBvcnRzIiBzdHlsZT0ic3Ryb2tlOiMxODE4MTg7c3Ryb2tlLXdpZHRoOjEuMDsiLz48cG9seWdvbiBmaWxsPSIjMTgxODE4IiBwb2ludHM9IjE2Mi45NywyODcuMzIsMTU2LjEzMDYsMjgwLjIzMzMsMTU4LjMzNTksMjg1LjQ0MjUsMTUzLjEyNjYsMjg3LjY0NzksMTYyLjk3LDI4Ny4zMiIgc3R5bGU9InN0cm9rZTojMTgxODE4O3N0cm9rZS13aWR0aDoxLjA7Ii8+PC9nPjwhLS1saW5rIEJyb3dzZSB0byBTaG9leiBPbmxpbmUtLT48ZyBpZD0ibGlua19Ccm93c2VfU2hvZXogT25saW5lIj48cGF0aCBkPSJNMjUxLjA4LDM4MS4yNiBDMjg4LjgyLDM5My40NiAzNDQuNDQsNDE1LjQ1IDM4NCw0NDguNSBDNDAyLjk5LDQ2NC4zNyA0MTYuNTQyMSw0ODEuMjUwOSA0MjkuMDgyMSw0OTkuOTAwOSAiIGZpbGw9Im5vbmUiIGlkPSJCcm93c2UtdG8tU2hvZXogT25saW5lIiBzdHlsZT0ic3Ryb2tlOiMxODE4MTg7c3Ryb2tlLXdpZHRoOjEuMDsiLz48cG9seWdvbiBmaWxsPSIjMTgxODE4IiBwb2ludHM9IjQzMi40Myw1MDQuODgsNDMwLjcyNzYsNDk1LjE3OTQsNDI5LjY0MDEsNTAwLjczMDcsNDI0LjA4ODgsNDk5LjY0MzIsNDMyLjQzLDUwNC44OCIgc3R5bGU9InN0cm9rZTojMTgxODE4O3N0cm9rZS13aWR0aDoxLjA7Ii8+PHRleHQgZmlsbD0iIzAwMDAwMCIgZm9udC1mYW1pbHk9InNhbnMtc2VyaWYiIGZvbnQtc2l6ZT0iMTMiIGxlbmd0aEFkanVzdD0ic3BhY2luZyIgdGV4dExlbmd0aD0iNTkiIHg9IjMyNCIgeT0iNDA5Ljc4OTEiPihJbmNsdWRlKTwvdGV4dD48L2c+PCEtLWxpbmsgQWRkVG9DYXJ0IHRvIFNob2V6IE9ubGluZS0tPjxnIGlkPSJsaW5rX0FkZFRvQ2FydF9TaG9leiBPbmxpbmUiPjxwYXRoIGQ9Ik0yNDcuMTcsNDQ1Ljg2IEMyODMuMTQsNDU3LjI3IDMzOC40NSw0NzYuMzIgMzg0LDQ5OC41IEMzOTMuOTEsNTAzLjMzIDM5OS4wNjc0LDUwNi4wMzYxIDQwOC42Mjc0LDUxMS44NjYxICIgZmlsbD0ibm9uZSIgaWQ9IkFkZFRvQ2FydC10by1TaG9leiBPbmxpbmUiIHN0eWxlPSJzdHJva2U6IzE4MTgxODtzdHJva2Utd2lkdGg6MS4wOyIvPjxwb2x5Z29uIGZpbGw9IiMxODE4MTgiIHBvaW50cz0iNDEzLjc1LDUxNC45OSw0MDguMTQ4Nyw1MDYuODg5LDQwOS40ODEyLDUxMi4zODY3LDQwMy45ODM1LDUxMy43MTkyLDQxMy43NSw1MTQuOTkiIHN0eWxlPSJzdHJva2U6IzE4MTgxODtzdHJva2Utd2lkdGg6MS4wOyIvPjx0ZXh0IGZpbGw9IiMwMDAwMDAiIGZvbnQtZmFtaWx5PSJzYW5zLXNlcmlmIiBmb250LXNpemU9IjEzIiBsZW5ndGhBZGp1c3Q9InNwYWNpbmciIHRleHRMZW5ndGg9IjU5IiB4PSIzMjQiIHk9IjQ2OS43ODkxIj4oSW5jbHVkZSk8L3RleHQ+PC9nPjwhLS1saW5rIENoZWNrb3V0IHRvIFNob2V6IE9ubGluZS0tPjxnIGlkPSJsaW5rX0NoZWNrb3V0X1Nob2V6IE9ubGluZSI+PHBhdGggZD0iTTI3OC41NCw1MTQuNDcgQzMyMi4wOCw1MjEuMzggMzcwLjkyNDMsNTI5LjEzODQgNDA3LjgwNDMsNTM0Ljk5ODQgIiBmaWxsPSJub25lIiBpZD0iQ2hlY2tvdXQtdG8tU2hvZXogT25saW5lIiBzdHlsZT0ic3Ryb2tlOiMxODE4MTg7c3Ryb2tlLXdpZHRoOjEuMDsiLz48cG9seWdvbiBmaWxsPSIjMTgxODE4IiBwb2ludHM9IjQxMy43Myw1MzUuOTQsNDA1LjQ2OTIsNTMwLjU3NzIsNDA4Ljc5MTksNTM1LjE1NTQsNDA0LjIxMzgsNTM4LjQ3ODEsNDEzLjczLDUzNS45NCIgc3R5bGU9InN0cm9rZTojMTgxODE4O3N0cm9rZS13aWR0aDoxLjA7Ii8+PHRleHQgZmlsbD0iIzAwMDAwMCIgZm9udC1mYW1pbHk9InNhbnMtc2VyaWYiIGZvbnQtc2l6ZT0iMTMiIGxlbmd0aEFkanVzdD0ic3BhY2luZyIgdGV4dExlbmd0aD0iNTkiIHg9IjMyNCIgeT0iNTE5Ljc4OTEiPihJbmNsdWRlKTwvdGV4dD48L2c+PCEtLWxpbmsgUGF5bWVudCB0byBTaG9leiBPbmxpbmUtLT48ZyBpZD0ibGlua19QYXltZW50X1Nob2V6IE9ubGluZSI+PHBhdGggZD0iTTI3Mi45Niw1NzQuNjUgQzMwNi4yNiw1NzQuMjMgMzQ3LjYsNTcyLjExIDM4NCw1NjUuNSBDMzkzLjgyLDU2My43MiAzOTguNDI1Niw1NjIuNzI3NCA0MDguMDc1Niw1NTkuNjk3NCAiIGZpbGw9Im5vbmUiIGlkPSJQYXltZW50LXRvLVNob2V6IE9ubGluZSIgc3R5bGU9InN0cm9rZTojMTgxODE4O3N0cm9rZS13aWR0aDoxLjA7Ii8+PHBvbHlnb24gZmlsbD0iIzE4MTgxOCIgcG9pbnRzPSI0MTMuOCw1NTcuOSw0MDQuMDE1MSw1NTYuNzc5OCw0MDkuMDI5Niw1NTkuMzk3OCw0MDYuNDExNiw1NjQuNDEyNCw0MTMuOCw1NTcuOSIgc3R5bGU9InN0cm9rZTojMTgxODE4O3N0cm9rZS13aWR0aDoxLjA7Ii8+PHRleHQgZmlsbD0iIzAwMDAwMCIgZm9udC1mYW1pbHk9InNhbnMtc2VyaWYiIGZvbnQtc2l6ZT0iMTMiIGxlbmd0aEFkanVzdD0ic3BhY2luZyIgdGV4dExlbmd0aD0iNTkiIHg9IjMyNCIgeT0iNTYzLjc4OTEiPihJbmNsdWRlKTwvdGV4dD48L2c+PCEtLWxpbmsgVHJhY2tTdGF0dXMgdG8gU2hvZXogT25saW5lLS0+PGcgaWQ9ImxpbmtfVHJhY2tTdGF0dXNfU2hvZXogT25saW5lIj48cGF0aCBkPSJNMjcyLjQ1LDYzMC45OSBDMzA2LjU1LDYyMy4zNCAzNDguNzgsNjExLjUzIDM4NCw1OTQuNSBDMzk0LjE4LDU4OS41OCAzOTkuNTExMSw1ODYuNjI0MiA0MDguOTAxMSw1NzkuOTg0MiAiIGZpbGw9Im5vbmUiIGlkPSJUcmFja1N0YXR1cy10by1TaG9leiBPbmxpbmUiIHN0eWxlPSJzdHJva2U6IzE4MTgxODtzdHJva2Utd2lkdGg6MS4wOyIvPjxwb2x5Z29uIGZpbGw9IiMxODE4MTgiIHBvaW50cz0iNDEzLjgsNTc2LjUyLDQwNC4xNDIyLDU3OC40NTAzLDQwOS43MTc2LDU3OS40MDY4LDQwOC43NjExLDU4NC45ODIyLDQxMy44LDU3Ni41MiIgc3R5bGU9InN0cm9rZTojMTgxODE4O3N0cm9rZS13aWR0aDoxLjA7Ii8+PHRleHQgZmlsbD0iIzAwMDAwMCIgZm9udC1mYW1pbHk9InNhbnMtc2VyaWYiIGZvbnQtc2l6ZT0iMTMiIGxlbmd0aEFkanVzdD0ic3BhY2luZyIgdGV4dExlbmd0aD0iNTkiIHg9IjMyNCIgeT0iNTkyLjc4OTEiPihJbmNsdWRlKTwvdGV4dD48L2c+PCEtLWxpbmsgVmlld0hpc3RvcnkgdG8gU2hvZXogT25saW5lLS0+PGcgaWQ9ImxpbmtfVmlld0hpc3RvcnlfU2hvZXogT25saW5lIj48cGF0aCBkPSJNMjYxLjQ4LDcwMC44OSBDMjk4LjM4LDY4OC43MSAzNDcuNjIsNjY4LjYxIDM4NCw2MzkuNSBDNDA0LjIxLDYyMy4zMyA0MTguMjkzNCw2MDUuMTQxMyA0MzAuNzQzNCw1ODUuNDUxMyAiIGZpbGw9Im5vbmUiIGlkPSJWaWV3SGlzdG9yeS10by1TaG9leiBPbmxpbmUiIHN0eWxlPSJzdHJva2U6IzE4MTgxODtzdHJva2Utd2lkdGg6MS4wOyIvPjxwb2x5Z29uIGZpbGw9IiMxODE4MTgiIHBvaW50cz0iNDMzLjk1LDU4MC4zOCw0MjUuNzU5Myw1ODUuODQ5Miw0MzEuMjc3OSw1ODQuNjA2MSw0MzIuNTIxLDU5MC4xMjQ2LDQzMy45NSw1ODAuMzgiIHN0eWxlPSJzdHJva2U6IzE4MTgxODtzdHJva2Utd2lkdGg6MS4wOyIvPjx0ZXh0IGZpbGw9IiMwMDAwMDAiIGZvbnQtZmFtaWx5PSJzYW5zLXNlcmlmIiBmb250LXNpemU9IjEzIiBsZW5ndGhBZGp1c3Q9InNwYWNpbmciIHRleHRMZW5ndGg9IjU5IiB4PSIzMjQiIHk9IjYzNy43ODkxIj4oSW5jbHVkZSk8L3RleHQ+PC9nPjwhLS1saW5rIFNob2V6IE9ubGluZSB0byBDb21tdW5pY2F0ZUV4dGVybmFsLS0+PGcgaWQ9ImxpbmtfU2hvZXogT25saW5lX0NvbW11bmljYXRlRXh0ZXJuYWwiPjxwYXRoIGQ9Ik00OTguMTIsNTQyLjUgQzUyOC4zNCw1NDIuNSA1NjUuMjEsNTQyLjUgNjA2LjcxLDU0Mi41ICIgZmlsbD0ibm9uZSIgaWQ9IlNob2V6IE9ubGluZS10by1Db21tdW5pY2F0ZUV4dGVybmFsIiBzdHlsZT0ic3Ryb2tlOiMxODE4MTg7c3Ryb2tlLXdpZHRoOjEuMDsiLz48cG9seWdvbiBmaWxsPSIjMTgxODE4IiBwb2ludHM9IjYxMi43MSw1NDIuNSw2MDMuNzEsNTM4LjUsNjA3LjcxLDU0Mi41LDYwMy43MSw1NDYuNSw2MTIuNzEsNTQyLjUiIHN0eWxlPSJzdHJva2U6IzE4MTgxODtzdHJva2Utd2lkdGg6MS4wOyIvPjx0ZXh0IGZpbGw9IiMwMDAwMDAiIGZvbnQtZmFtaWx5PSJzYW5zLXNlcmlmIiBmb250LXNpemU9IjEzIiBsZW5ndGhBZGp1c3Q9InNwYWNpbmciIHRleHRMZW5ndGg9IjUzIiB4PSI1MjkiIHk9IjU0MC43ODkxIj4oRXh0ZW5kKTwvdGV4dD48L2c+PCEtLVNSQz1bWFBCRktpQ1c0Q1JsRkNLczl0bG0xSm11NC1FXzdoR1RLeHFwaTZzTzlrMDBpVFFkRHgyR25kaDhCVHpsbG9waWpvbWF4Zkg2VUEtV1RvWXVHeFA4Z0Fvc204S3RiaDRNVG53eTBRbHNaR1VmQjBnbFo2T2lyZzdnZEpTVE1rMEVnaUhBc0lhVEdDYzZ0aU1UREtVN0szUzZOSDRtV0xXaGZHcERBc3Z6QjByd1F1QUFyT3FyMGY0UzNPZzN3U2NMSEpJenkwRjJYZnl3cjVIRHR4NnVqTG1TTzZ0YlNDRlFTel9KM0k4YzdNcVYyZV85elFvNldVbWZzVzlFRVhzYi1IdlhmUi02X2piNFM2SlpNQXozb3M0MHNHbGx5Y25QSHpEWnQtdktzekF2UDRjOG9GYmNETV9IbUp0dFZCbk1IODU0cm5EZ2pEbVpsRTZkaVVjeTMxRUJuaWZxTlEtTDJEd1p5V3F5VjdrcWNoVEdkdnA3Wmx3U2s3QVRpR2draHNfcHhhWVNqcUx3dDBsOWwwWElxeW85SkVEYlBLSU5PUFJ2ZDM0djhkLTNBaVRzdnJZOE5NUjBxY0NDaklBeW8xek93dFB1eVdOU21ETEFZeFFOazZKWk83RjZGRjZTQnFLblB2amFENlVUWDNUZFBIVXJrQWhfQW14X1g2eWpieHkwXS0tPjwvZz48L3N2Zz4=;" vertex="1" parent="1">
            <mxGeometry x="410" y="20" width="883" height="740" as="geometry" />
          </mxCell>
        </UserObject>
      </root>
    </mxGraphModel>
  </diagram>
  <diagram id="JKcP8DLwpLFtVmE6Tvoa" name="Sequence">
    <mxGraphModel dx="1434" dy="738" grid="1" gridSize="10" guides="1" tooltips="1" connect="1" arrows="1" fold="1" page="1" pageScale="1" pageWidth="827" pageHeight="1169" math="0" shadow="0">
      <root>
        <mxCell id="0" />
        <mxCell id="1" parent="0" />
        <mxCell id="Wp_aF7FL4MT0-dAHJpbp-1" value=":Object" style="shape=umlLifeline;perimeter=lifelinePerimeter;whiteSpace=wrap;html=1;container=1;collapsible=0;recursiveResize=0;outlineConnect=0;rounded=1;shadow=0;comic=0;labelBackgroundColor=none;strokeWidth=1;fontFamily=Verdana;fontSize=12;align=center;" vertex="1" parent="1">
          <mxGeometry x="160" y="70" width="100" height="580" as="geometry" />
        </mxCell>
        <mxCell id="Wp_aF7FL4MT0-dAHJpbp-2" value="" style="html=1;points=[];perimeter=orthogonalPerimeter;rounded=0;shadow=0;comic=0;labelBackgroundColor=none;strokeWidth=1;fontFamily=Verdana;fontSize=12;align=center;" vertex="1" parent="Wp_aF7FL4MT0-dAHJpbp-1">
          <mxGeometry x="45" y="100" width="10" height="230" as="geometry" />
        </mxCell>
        <mxCell id="Wp_aF7FL4MT0-dAHJpbp-3" value=":Object" style="shape=umlLifeline;perimeter=lifelinePerimeter;whiteSpace=wrap;html=1;container=1;collapsible=0;recursiveResize=0;outlineConnect=0;rounded=1;shadow=0;comic=0;labelBackgroundColor=none;strokeWidth=1;fontFamily=Verdana;fontSize=12;align=center;" vertex="1" parent="1">
          <mxGeometry x="320" y="70" width="100" height="580" as="geometry" />
        </mxCell>
        <mxCell id="Wp_aF7FL4MT0-dAHJpbp-4" value="" style="html=1;points=[];perimeter=orthogonalPerimeter;rounded=0;shadow=0;comic=0;labelBackgroundColor=none;strokeWidth=1;fontFamily=Verdana;fontSize=12;align=center;" vertex="1" parent="Wp_aF7FL4MT0-dAHJpbp-3">
          <mxGeometry x="45" y="120" width="10" height="200" as="geometry" />
        </mxCell>
        <mxCell id="Wp_aF7FL4MT0-dAHJpbp-5" value=":Object" style="shape=umlLifeline;perimeter=lifelinePerimeter;whiteSpace=wrap;html=1;container=1;collapsible=0;recursiveResize=0;outlineConnect=0;rounded=1;shadow=0;comic=0;labelBackgroundColor=none;strokeWidth=1;fontFamily=Verdana;fontSize=12;align=center;" vertex="1" parent="1">
          <mxGeometry x="460" y="70" width="100" height="580" as="geometry" />
        </mxCell>
        <mxCell id="Wp_aF7FL4MT0-dAHJpbp-6" value=":Object" style="shape=umlLifeline;perimeter=lifelinePerimeter;whiteSpace=wrap;html=1;container=1;collapsible=0;recursiveResize=0;outlineConnect=0;rounded=1;shadow=0;comic=0;labelBackgroundColor=none;strokeWidth=1;fontFamily=Verdana;fontSize=12;align=center;" vertex="1" parent="1">
          <mxGeometry x="600" y="70" width="100" height="580" as="geometry" />
        </mxCell>
        <mxCell id="Wp_aF7FL4MT0-dAHJpbp-7" value=":Object" style="shape=umlLifeline;perimeter=lifelinePerimeter;whiteSpace=wrap;html=1;container=1;collapsible=0;recursiveResize=0;outlineConnect=0;rounded=1;shadow=0;comic=0;labelBackgroundColor=none;strokeWidth=1;fontFamily=Verdana;fontSize=12;align=center;" vertex="1" parent="1">
          <mxGeometry x="740" y="70" width="100" height="580" as="geometry" />
        </mxCell>
        <mxCell id="Wp_aF7FL4MT0-dAHJpbp-8" value=":Object" style="shape=umlLifeline;perimeter=lifelinePerimeter;whiteSpace=wrap;html=1;container=1;collapsible=0;recursiveResize=0;outlineConnect=0;rounded=1;shadow=0;comic=0;labelBackgroundColor=none;strokeWidth=1;fontFamily=Verdana;fontSize=12;align=center;" vertex="1" parent="1">
          <mxGeometry x="880" y="70" width="100" height="580" as="geometry" />
        </mxCell>
        <mxCell id="Wp_aF7FL4MT0-dAHJpbp-9" value=":Object" style="shape=umlLifeline;perimeter=lifelinePerimeter;whiteSpace=wrap;html=1;container=1;collapsible=0;recursiveResize=0;outlineConnect=0;rounded=1;shadow=0;comic=0;labelBackgroundColor=none;strokeWidth=1;fontFamily=Verdana;fontSize=12;align=center;" vertex="1" parent="1">
          <mxGeometry x="20" y="70" width="100" height="580" as="geometry" />
        </mxCell>
        <mxCell id="Wp_aF7FL4MT0-dAHJpbp-10" value="" style="html=1;points=[];perimeter=orthogonalPerimeter;rounded=0;shadow=0;comic=0;labelBackgroundColor=none;strokeWidth=1;fontFamily=Verdana;fontSize=12;align=center;" vertex="1" parent="Wp_aF7FL4MT0-dAHJpbp-9">
          <mxGeometry x="45" y="100" width="10" height="440" as="geometry" />
        </mxCell>
        <mxCell id="Wp_aF7FL4MT0-dAHJpbp-11" value="" style="html=1;points=[];perimeter=orthogonalPerimeter;rounded=0;shadow=0;comic=0;labelBackgroundColor=none;strokeWidth=1;fontFamily=Verdana;fontSize=12;align=center;" vertex="1" parent="1">
          <mxGeometry x="505" y="210" width="10" height="180" as="geometry" />
        </mxCell>
        <mxCell id="Wp_aF7FL4MT0-dAHJpbp-12" value="dispatch" style="html=1;verticalAlign=bottom;endArrow=block;labelBackgroundColor=none;fontFamily=Verdana;fontSize=12;edgeStyle=elbowEdgeStyle;elbow=vertical;rounded=0;" edge="1" parent="1" source="Wp_aF7FL4MT0-dAHJpbp-4" target="Wp_aF7FL4MT0-dAHJpbp-11">
          <mxGeometry relative="1" as="geometry">
            <mxPoint x="430" y="210" as="sourcePoint" />
            <Array as="points">
              <mxPoint x="380" y="210" />
            </Array>
          </mxGeometry>
        </mxCell>
        <mxCell id="Wp_aF7FL4MT0-dAHJpbp-13" value="" style="html=1;points=[];perimeter=orthogonalPerimeter;rounded=0;shadow=0;comic=0;labelBackgroundColor=none;strokeWidth=1;fontFamily=Verdana;fontSize=12;align=center;" vertex="1" parent="1">
          <mxGeometry x="645" y="220" width="10" height="40" as="geometry" />
        </mxCell>
        <mxCell id="Wp_aF7FL4MT0-dAHJpbp-14" value="dispatch" style="html=1;verticalAlign=bottom;endArrow=block;entryX=0;entryY=0;labelBackgroundColor=none;fontFamily=Verdana;fontSize=12;edgeStyle=elbowEdgeStyle;elbow=vertical;rounded=0;" edge="1" parent="1" source="Wp_aF7FL4MT0-dAHJpbp-11" target="Wp_aF7FL4MT0-dAHJpbp-13">
          <mxGeometry relative="1" as="geometry">
            <mxPoint x="570" y="220" as="sourcePoint" />
          </mxGeometry>
        </mxCell>
        <mxCell id="Wp_aF7FL4MT0-dAHJpbp-15" value="return" style="html=1;verticalAlign=bottom;endArrow=open;dashed=1;endSize=8;labelBackgroundColor=none;fontFamily=Verdana;fontSize=12;edgeStyle=elbowEdgeStyle;elbow=vertical;rounded=0;" edge="1" parent="1" source="Wp_aF7FL4MT0-dAHJpbp-13" target="Wp_aF7FL4MT0-dAHJpbp-11">
          <mxGeometry relative="1" as="geometry">
            <mxPoint x="570" y="296" as="targetPoint" />
            <Array as="points">
              <mxPoint x="590" y="250" />
              <mxPoint x="620" y="250" />
            </Array>
          </mxGeometry>
        </mxCell>
        <mxCell id="Wp_aF7FL4MT0-dAHJpbp-16" value="" style="html=1;points=[];perimeter=orthogonalPerimeter;rounded=0;shadow=0;comic=0;labelBackgroundColor=none;strokeWidth=1;fontFamily=Verdana;fontSize=12;align=center;" vertex="1" parent="1">
          <mxGeometry x="505" y="430" width="10" height="140" as="geometry" />
        </mxCell>
        <mxCell id="Wp_aF7FL4MT0-dAHJpbp-17" value="dispatch" style="html=1;verticalAlign=bottom;endArrow=block;entryX=0;entryY=0;labelBackgroundColor=none;fontFamily=Verdana;fontSize=12;rounded=0;" edge="1" parent="1" source="Wp_aF7FL4MT0-dAHJpbp-10" target="Wp_aF7FL4MT0-dAHJpbp-16">
          <mxGeometry relative="1" as="geometry">
            <mxPoint x="430" y="410" as="sourcePoint" />
          </mxGeometry>
        </mxCell>
        <mxCell id="Wp_aF7FL4MT0-dAHJpbp-18" value="" style="html=1;points=[];perimeter=orthogonalPerimeter;rounded=0;shadow=0;comic=0;labelBackgroundColor=none;strokeColor=#000000;strokeWidth=1;fillColor=#FFFFFF;fontFamily=Verdana;fontSize=12;fontColor=#000000;align=center;" vertex="1" parent="1">
          <mxGeometry x="925" y="450" width="10" height="30" as="geometry" />
        </mxCell>
        <mxCell id="Wp_aF7FL4MT0-dAHJpbp-19" value="dispatch" style="html=1;verticalAlign=bottom;endArrow=block;entryX=0;entryY=0;labelBackgroundColor=none;fontFamily=Verdana;fontSize=12;rounded=0;" edge="1" parent="1" source="Wp_aF7FL4MT0-dAHJpbp-16" target="Wp_aF7FL4MT0-dAHJpbp-18">
          <mxGeometry relative="1" as="geometry">
            <mxPoint x="850" y="330" as="sourcePoint" />
          </mxGeometry>
        </mxCell>
        <mxCell id="Wp_aF7FL4MT0-dAHJpbp-20" value="return" style="html=1;verticalAlign=bottom;endArrow=open;dashed=1;endSize=8;exitX=0;exitY=0.95;labelBackgroundColor=none;fontFamily=Verdana;fontSize=12;rounded=0;" edge="1" parent="1" source="Wp_aF7FL4MT0-dAHJpbp-18" target="Wp_aF7FL4MT0-dAHJpbp-16">
          <mxGeometry relative="1" as="geometry">
            <mxPoint x="850" y="406" as="targetPoint" />
          </mxGeometry>
        </mxCell>
        <mxCell id="Wp_aF7FL4MT0-dAHJpbp-21" value="" style="html=1;points=[];perimeter=orthogonalPerimeter;rounded=0;shadow=0;comic=0;labelBackgroundColor=none;strokeWidth=1;fontFamily=Verdana;fontSize=12;align=center;" vertex="1" parent="1">
          <mxGeometry x="790" y="540" width="10" height="60" as="geometry" />
        </mxCell>
        <mxCell id="Wp_aF7FL4MT0-dAHJpbp-22" value="dispatch" style="html=1;verticalAlign=bottom;endArrow=block;entryX=0;entryY=0;labelBackgroundColor=none;fontFamily=Verdana;fontSize=12;edgeStyle=elbowEdgeStyle;elbow=vertical;rounded=0;" edge="1" parent="1" source="Wp_aF7FL4MT0-dAHJpbp-29" target="Wp_aF7FL4MT0-dAHJpbp-21">
          <mxGeometry relative="1" as="geometry">
            <mxPoint x="720" y="540" as="sourcePoint" />
          </mxGeometry>
        </mxCell>
        <mxCell id="Wp_aF7FL4MT0-dAHJpbp-23" value="return" style="html=1;verticalAlign=bottom;endArrow=open;dashed=1;endSize=8;labelBackgroundColor=none;fontFamily=Verdana;fontSize=12;edgeStyle=elbowEdgeStyle;elbow=vertical;rounded=0;" edge="1" parent="1" source="Wp_aF7FL4MT0-dAHJpbp-21" target="Wp_aF7FL4MT0-dAHJpbp-10">
          <mxGeometry relative="1" as="geometry">
            <mxPoint x="720" y="616" as="targetPoint" />
            <Array as="points">
              <mxPoint x="490" y="590" />
            </Array>
          </mxGeometry>
        </mxCell>
        <mxCell id="Wp_aF7FL4MT0-dAHJpbp-24" value="dispatch" style="html=1;verticalAlign=bottom;endArrow=block;entryX=0;entryY=0;labelBackgroundColor=none;fontFamily=Verdana;fontSize=12;edgeStyle=elbowEdgeStyle;elbow=vertical;rounded=0;" edge="1" parent="1" source="Wp_aF7FL4MT0-dAHJpbp-10" target="Wp_aF7FL4MT0-dAHJpbp-2">
          <mxGeometry relative="1" as="geometry">
            <mxPoint x="140" y="180" as="sourcePoint" />
          </mxGeometry>
        </mxCell>
        <mxCell id="Wp_aF7FL4MT0-dAHJpbp-25" value="dispatch" style="html=1;verticalAlign=bottom;endArrow=block;entryX=0;entryY=0;labelBackgroundColor=none;fontFamily=Verdana;fontSize=12;edgeStyle=elbowEdgeStyle;elbow=vertical;rounded=0;" edge="1" parent="1" source="Wp_aF7FL4MT0-dAHJpbp-2" target="Wp_aF7FL4MT0-dAHJpbp-4">
          <mxGeometry relative="1" as="geometry">
            <mxPoint x="290" y="190" as="sourcePoint" />
          </mxGeometry>
        </mxCell>
        <mxCell id="Wp_aF7FL4MT0-dAHJpbp-26" value="" style="html=1;points=[];perimeter=orthogonalPerimeter;rounded=0;shadow=0;comic=0;labelBackgroundColor=none;strokeWidth=1;fontFamily=Verdana;fontSize=12;align=center;" vertex="1" parent="1">
          <mxGeometry x="510" y="290" width="10" height="70" as="geometry" />
        </mxCell>
        <mxCell id="Wp_aF7FL4MT0-dAHJpbp-27" value="dispatch" style="html=1;verticalAlign=bottom;endArrow=block;labelBackgroundColor=none;fontFamily=Verdana;fontSize=12;elbow=vertical;edgeStyle=orthogonalEdgeStyle;curved=1;entryX=1;entryY=0.286;entryPerimeter=0;exitX=1.038;exitY=0.345;exitPerimeter=0;rounded=0;" edge="1" parent="1" source="Wp_aF7FL4MT0-dAHJpbp-11" target="Wp_aF7FL4MT0-dAHJpbp-26">
          <mxGeometry relative="1" as="geometry">
            <mxPoint x="385" y="220" as="sourcePoint" />
            <mxPoint x="515" y="220" as="targetPoint" />
            <Array as="points">
              <mxPoint x="570" y="272" />
              <mxPoint x="570" y="310" />
            </Array>
          </mxGeometry>
        </mxCell>
        <mxCell id="Wp_aF7FL4MT0-dAHJpbp-28" value="dispatch" style="html=1;verticalAlign=bottom;endArrow=block;labelBackgroundColor=none;fontFamily=Verdana;fontSize=12;elbow=vertical;edgeStyle=orthogonalEdgeStyle;curved=1;exitX=1.066;exitY=0.713;exitPerimeter=0;rounded=0;" edge="1" parent="1" source="Wp_aF7FL4MT0-dAHJpbp-26">
          <mxGeometry relative="1" as="geometry">
            <mxPoint x="530.3333333333333" y="340" as="sourcePoint" />
            <mxPoint x="515" y="379" as="targetPoint" />
            <Array as="points">
              <mxPoint x="570" y="340" />
              <mxPoint x="570" y="379" />
            </Array>
          </mxGeometry>
        </mxCell>
        <mxCell id="Wp_aF7FL4MT0-dAHJpbp-29" value="" style="html=1;points=[];perimeter=orthogonalPerimeter;rounded=0;shadow=0;comic=0;labelBackgroundColor=none;strokeWidth=1;fontFamily=Verdana;fontSize=12;align=center;" vertex="1" parent="1">
          <mxGeometry x="510" y="510" width="10" height="40" as="geometry" />
        </mxCell>
        <mxCell id="Wp_aF7FL4MT0-dAHJpbp-30" value="dispatch" style="html=1;verticalAlign=bottom;endArrow=block;labelBackgroundColor=none;fontFamily=Verdana;fontSize=12;elbow=vertical;edgeStyle=orthogonalEdgeStyle;curved=1;entryX=1;entryY=0.286;entryPerimeter=0;exitX=1.038;exitY=0.345;exitPerimeter=0;rounded=0;" edge="1" parent="1">
          <mxGeometry relative="1" as="geometry">
            <mxPoint x="515.3333333333335" y="491" as="sourcePoint" />
            <mxPoint x="520.3333333333335" y="529.3333333333334" as="targetPoint" />
            <Array as="points">
              <mxPoint x="570" y="491" />
              <mxPoint x="570" y="529" />
            </Array>
          </mxGeometry>
        </mxCell>
        <mxCell id="Wp_aF7FL4MT0-dAHJpbp-31" value="Note" style="shape=note;whiteSpace=wrap;html=1;size=14;verticalAlign=top;align=left;spacingTop=-6;rounded=0;shadow=0;comic=0;labelBackgroundColor=none;strokeWidth=1;fontFamily=Verdana;fontSize=12" vertex="1" parent="1">
          <mxGeometry x="20" y="20" width="100" height="35" as="geometry" />
        </mxCell>
        <mxCell id="Wp_aF7FL4MT0-dAHJpbp-32" value="Note" style="shape=note;whiteSpace=wrap;html=1;size=14;verticalAlign=top;align=left;spacingTop=-6;rounded=0;shadow=0;comic=0;labelBackgroundColor=none;strokeWidth=1;fontFamily=Verdana;fontSize=12" vertex="1" parent="1">
          <mxGeometry x="160" y="20" width="100" height="35" as="geometry" />
        </mxCell>
        <mxCell id="Wp_aF7FL4MT0-dAHJpbp-33" value="Note" style="shape=note;whiteSpace=wrap;html=1;size=14;verticalAlign=top;align=left;spacingTop=-6;rounded=0;shadow=0;comic=0;labelBackgroundColor=none;strokeWidth=1;fontFamily=Verdana;fontSize=12" vertex="1" parent="1">
          <mxGeometry x="320" y="20" width="100" height="35" as="geometry" />
        </mxCell>
        <mxCell id="Wp_aF7FL4MT0-dAHJpbp-34" value="Note" style="shape=note;whiteSpace=wrap;html=1;size=14;verticalAlign=top;align=left;spacingTop=-6;rounded=0;shadow=0;comic=0;labelBackgroundColor=none;strokeWidth=1;fontFamily=Verdana;fontSize=12" vertex="1" parent="1">
          <mxGeometry x="460" y="20" width="100" height="35" as="geometry" />
        </mxCell>
        <mxCell id="Wp_aF7FL4MT0-dAHJpbp-35" value="Note" style="shape=note;whiteSpace=wrap;html=1;size=14;verticalAlign=top;align=left;spacingTop=-6;rounded=0;shadow=0;comic=0;labelBackgroundColor=none;strokeWidth=1;fontFamily=Verdana;fontSize=12" vertex="1" parent="1">
          <mxGeometry x="600" y="20" width="100" height="35" as="geometry" />
        </mxCell>
        <mxCell id="Wp_aF7FL4MT0-dAHJpbp-36" value="Note" style="shape=note;whiteSpace=wrap;html=1;size=14;verticalAlign=top;align=left;spacingTop=-6;rounded=0;shadow=0;comic=0;labelBackgroundColor=none;strokeWidth=1;fontFamily=Verdana;fontSize=12" vertex="1" parent="1">
          <mxGeometry x="740" y="20" width="100" height="35" as="geometry" />
        </mxCell>
        <mxCell id="Wp_aF7FL4MT0-dAHJpbp-37" value="Note" style="shape=note;whiteSpace=wrap;html=1;size=14;verticalAlign=top;align=left;spacingTop=-6;rounded=0;shadow=0;comic=0;labelBackgroundColor=none;strokeWidth=1;fontFamily=Verdana;fontSize=12" vertex="1" parent="1">
          <mxGeometry x="880" y="20" width="100" height="35" as="geometry" />
        </mxCell>
      </root>
    </mxGraphModel>
  </diagram>
</mxfile>
